<?xml version="1.0" encoding="utf-8"?><svg xmlns="http://www.w3.org/2000/svg" xmlns:xlink="http://www.w3.org/1999/xlink"><defs><svg fill="none" viewBox="0 0 68 28" id="applepay-ico" xmlns="http://www.w3.org/2000/svg"><path fill-rule="evenodd" clip-rule="evenodd" d="M12.59 3.572c.76-.96 1.276-2.25 1.14-3.567-1.114.055-2.473.74-3.26 1.702-.706.823-1.331 2.167-1.168 3.429 1.25.11 2.499-.63 3.287-1.564h.001zm1.125 1.81c-1.815-.11-3.359 1.04-4.226 1.04s-2.194-.984-3.63-.958c-1.87.028-3.604 1.094-4.552 2.79-1.95 3.394-.515 8.427 1.382 11.19.921 1.368 2.031 2.873 3.494 2.82 1.383-.055 1.924-.904 3.604-.904 1.68 0 2.168.903 3.63.876 1.518-.027 2.467-1.368 3.388-2.736 1.056-1.56 1.49-3.064 1.516-3.147-.027-.027-2.925-1.15-2.952-4.514-.028-2.818 2.275-4.158 2.383-4.242-1.3-1.94-3.332-2.16-4.037-2.214zm13.635 7.026h3.62c2.749 0 4.313-1.494 4.313-4.082 0-2.59-1.564-4.068-4.298-4.068h-3.636v8.15h.001zM31.817 1.57c3.946 0 6.694 2.745 6.694 6.74 0 4.012-2.805 6.77-6.793 6.77H27.35v7.013h-3.157V1.57h7.625-.001zm17.06 14.948v-1.152l-3.51.227c-1.972.128-3.001.868-3.001 2.162 0 1.252 1.071 2.063 2.748 2.063 2.143 0 3.763-1.38 3.763-3.3zm-9.583 1.323c0-2.632 1.987-4.14 5.65-4.367l3.933-.242v-1.137c0-1.664-1.085-2.575-3.016-2.575-1.593 0-2.748.825-2.987 2.09h-2.847c.084-2.66 2.564-4.592 5.92-4.592 3.606 0 5.96 1.905 5.96 4.863v10.212h-2.918v-2.46h-.07c-.832 1.607-2.664 2.617-4.65 2.617-2.931 0-4.975-1.764-4.975-4.41zm15.295 9.742v-2.46c.197.028.676.057.93.057 1.395 0 2.184-.597 2.663-2.134l.282-.91-5.34-14.934h3.297l3.72 12.117h.07l3.72-12.117h3.214L61.607 22.89c-1.269 3.598-2.72 4.779-5.792 4.779-.24 0-1.015-.03-1.226-.086z" fill="currentColor"/></svg><svg fill="none" viewBox="0 0 169 50" id="appstore" xmlns="http://www.w3.org/2000/svg"><path d="M162.523 50H5.903C2.65 50 0 47.34 0 44.084V5.907A5.912 5.912 0 015.903 0h156.62c3.253 0 5.996 2.65 5.996 5.907v38.177c0 3.256-2.743 5.916-5.996 5.916z" fill="#A6A6A6"/><path d="M167.31 44.085a4.785 4.785 0 01-4.786 4.788H5.904a4.79 4.79 0 01-4.793-4.788V5.906a4.796 4.796 0 014.792-4.793h156.62a4.79 4.79 0 014.787 4.793v38.179z" fill="var(--appstore-background, #000)"/><path d="M37.609 24.73c-.036-4.029 3.294-5.989 3.446-6.08-1.886-2.754-4.81-3.13-5.837-3.16-2.455-.259-4.837 1.471-6.087 1.471-1.276 0-3.202-1.446-5.278-1.404-2.672.042-5.17 1.59-6.541 3.995-2.829 4.904-.72 12.11 1.99 16.074 1.356 1.941 2.94 4.109 5.014 4.033 2.028-.084 2.786-1.295 5.234-1.295 2.425 0 3.137 1.295 5.252 1.246 2.177-.035 3.547-1.95 4.855-3.909 1.567-2.225 2.196-4.416 2.221-4.529-.051-.017-4.228-1.613-4.27-6.442h.001zm-3.995-11.847c1.091-1.367 1.838-3.225 1.63-5.112-1.578.07-3.553 1.094-4.69 2.43-1.007 1.179-1.905 3.109-1.674 4.923 1.774.132 3.595-.896 4.733-2.241h.001zM66.964 39.38h-2.835l-1.552-4.886h-5.399l-1.48 4.886H52.94l5.348-16.635h3.303l5.374 16.635h-.001zm-4.856-6.936L60.704 28.1c-.148-.444-.427-1.489-.837-3.134h-.05c-.164.708-.427 1.753-.79 3.134l-1.379 4.344h4.46zm18.609.791c0 2.04-.55 3.652-1.652 4.836-.986 1.054-2.21 1.58-3.672 1.58-1.578 0-2.712-.567-3.402-1.702h-.05v6.318H69.28V31.334c0-1.283-.034-2.599-.099-3.949h2.34l.15 1.901h.05c.887-1.432 2.234-2.147 4.041-2.147 1.413 0 2.593.558 3.537 1.677.946 1.12 1.418 2.593 1.418 4.419zm-2.712.098c0-1.168-.262-2.13-.789-2.888-.575-.79-1.348-1.185-2.316-1.185-.657 0-1.254.22-1.787.654-.534.437-.883 1.008-1.047 1.716-.082.33-.124.6-.124.813v2c0 .872.268 1.608.802 2.21.534.6 1.228.9 2.082.9 1.002 0 1.783-.387 2.34-1.16.56-.773.84-1.793.84-3.06h-.001zm16.489-.098c0 2.04-.55 3.652-1.653 4.836-.985 1.054-2.21 1.58-3.671 1.58-1.578 0-2.711-.567-3.4-1.702h-.05v6.318h-2.662V31.334c0-1.283-.033-2.599-.098-3.949h2.34l.149 1.901h.05c.886-1.432 2.233-2.147 4.042-2.147 1.412 0 2.591.558 3.537 1.677.943 1.12 1.416 2.593 1.416 4.419zm-2.711.098c0-1.168-.264-2.13-.79-2.888-.576-.79-1.346-1.185-2.316-1.185-.658 0-1.253.22-1.788.654-.534.437-.882 1.008-1.046 1.716-.08.33-.123.6-.123.813v2c0 .872.267 1.608.799 2.21.534.6 1.228.9 2.084.9 1.003 0 1.783-.387 2.34-1.16.56-.773.84-1.793.84-3.06zm18.115 1.382c0 1.415-.49 2.566-1.476 3.455-1.082.971-2.589 1.456-4.525 1.456-1.787 0-3.22-.345-4.305-1.036l.617-2.221a7.29 7.29 0 003.847 1.062c1.002 0 1.782-.227 2.343-.68.558-.452.836-1.06.836-1.817 0-.675-.23-1.244-.69-1.705-.458-.461-1.223-.89-2.292-1.286-2.908-1.087-4.361-2.678-4.361-4.77 0-1.368.509-2.49 1.529-3.362 1.016-.873 2.371-1.31 4.067-1.31 1.511 0 2.767.264 3.77.79l-.666 2.173c-.936-.51-1.995-.765-3.18-.765-.935 0-1.667.231-2.191.691a1.978 1.978 0 00-.666 1.506c0 .658.254 1.202.763 1.629.443.395 1.248.822 2.417 1.284 1.43.576 2.479 1.25 3.154 2.022.673.77 1.009 1.734 1.009 2.884zm8.799-5.33h-2.933v5.824c0 1.481.516 2.221 1.552 2.221.476 0 .87-.041 1.182-.124l.074 2.024c-.524.196-1.214.295-2.07.295-1.05 0-1.872-.321-2.465-.962-.59-.643-.887-1.72-.887-3.234v-6.046h-1.748v-2h1.748v-2.197l2.614-.79v2.987h2.933v2.002zm13.236 3.899c0 1.843-.527 3.357-1.578 4.541-1.103 1.219-2.566 1.826-4.39 1.826-1.757 0-3.156-.584-4.2-1.751-1.043-1.168-1.565-2.641-1.565-4.418 0-1.858.537-3.38 1.614-4.564 1.074-1.186 2.524-1.778 4.349-1.778 1.758 0 3.172.584 4.24 1.753 1.02 1.133 1.53 2.597 1.53 4.39v.001zm-2.762.086c0-1.106-.236-2.055-.714-2.846-.558-.958-1.355-1.435-2.389-1.435-1.07 0-1.882.478-2.44 1.435-.478.792-.714 1.756-.714 2.896 0 1.106.236 2.055.714 2.845.575.957 1.38 1.435 2.416 1.435 1.016 0 1.814-.487 2.39-1.46.49-.806.737-1.765.737-2.87zm11.412-3.641a4.588 4.588 0 00-.839-.074c-.936 0-1.66.354-2.17 1.062-.442.625-.665 1.415-.665 2.37v6.293h-2.66l.025-8.217c0-1.383-.033-2.642-.1-3.777h2.319l.097 2.295h.074c.28-.788.724-1.423 1.33-1.9.593-.428 1.234-.642 1.924-.642.246 0 .468.017.665.048v2.543-.001zm11.903 3.086c0 .478-.032.88-.098 1.209h-7.984c.031 1.185.417 2.091 1.159 2.716.672.559 1.542.839 2.611.839 1.182 0 2.26-.189 3.23-.568l.417 1.85c-1.133.495-2.471.741-4.015.741-1.858 0-3.316-.547-4.377-1.64-1.058-1.095-1.589-2.563-1.589-4.406 0-1.808.493-3.315 1.48-4.516 1.034-1.282 2.431-1.924 4.189-1.924 1.726 0 3.033.642 3.92 1.924.703 1.019 1.057 2.279 1.057 3.775zm-2.538-.691c.017-.79-.156-1.473-.517-2.049-.46-.741-1.168-1.111-2.12-1.111-.87 0-1.579.361-2.12 1.086-.442.576-.706 1.268-.787 2.073h5.544v.001zM61.228 12.511c0 1.471-.44 2.579-1.32 3.323-.816.686-1.974 1.03-3.475 1.03-.744 0-1.38-.033-1.913-.098V8.727c.695-.112 1.444-.17 2.253-.17 1.43 0 2.507.312 3.233.934.814.704 1.222 1.71 1.222 3.02zm-1.38.037c0-.954-.251-1.686-.756-2.196-.504-.508-1.24-.763-2.21-.763-.412 0-.763.027-1.054.085v6.111c.161.025.456.036.884.036 1.001 0 1.774-.278 2.318-.836.544-.558.819-1.37.819-2.438l-.001.001zm8.694 1.248c0 .906-.259 1.649-.775 2.231-.542.6-1.26.898-2.156.898-.864 0-1.552-.286-2.065-.861-.512-.574-.768-1.298-.768-2.17 0-.913.264-1.662.793-2.243.53-.581 1.241-.872 2.137-.872.864 0 1.558.286 2.084.86.499.557.75 1.277.75 2.157zm-1.357.043c0-.544-.117-1.01-.35-1.399-.275-.47-.666-.705-1.174-.705-.526 0-.925.235-1.2.705-.234.389-.35.862-.35 1.422 0 .544.117 1.01.35 1.4.284.47.678.704 1.187.704.5 0 .892-.239 1.174-.717.242-.396.363-.866.363-1.41zm11.163-2.94l-1.84 5.892h-1.2l-.762-2.559a19.43 19.43 0 01-.473-1.903h-.024c-.113.647-.27 1.281-.473 1.904l-.81 2.558h-1.212L69.823 10.9h1.344l.665 2.801c.161.662.294 1.294.4 1.891h.023c.098-.492.259-1.12.486-1.878l.835-2.814h1.066l.8 2.752c.194.672.351 1.318.472 1.94h.036a18.77 18.77 0 01.4-1.94l.714-2.752h1.284v-.001zm6.782 5.892h-1.308v-3.375c0-1.04-.394-1.56-1.186-1.56-.388 0-.701.143-.945.429-.24.286-.363.624-.363 1.01v3.495H80.02v-4.207c0-.518-.016-1.08-.048-1.687h1.15l.061.921h.036c.153-.286.38-.522.678-.71.355-.22.752-.332 1.186-.332.55 0 1.006.178 1.37.534.451.436.677 1.087.677 1.952v3.53zm3.608 0h-1.307V8.195h1.307v8.596zm7.702-2.995c0 .906-.259 1.649-.775 2.231-.542.6-1.261.898-2.156.898-.865 0-1.553-.286-2.065-.861-.512-.574-.768-1.298-.768-2.17 0-.913.264-1.662.793-2.243.53-.581 1.24-.872 2.136-.872.865 0 1.558.286 2.085.86.499.557.75 1.277.75 2.157zm-1.358.043c0-.544-.118-1.01-.351-1.399-.274-.47-.665-.705-1.172-.705-.527 0-.927.235-1.2.705-.235.389-.35.862-.35 1.422 0 .544.117 1.01.35 1.4.283.47.678.704 1.187.704.5 0 .89-.239 1.172-.717.244-.396.364-.866.364-1.41zm7.689 2.952h-1.175l-.097-.678h-.036c-.402.54-.975.812-1.719.812-.556 0-1.005-.179-1.343-.534-.307-.322-.46-.723-.46-1.2 0-.72.299-1.268.902-1.648.601-.38 1.448-.567 2.537-.558v-.11c0-.776-.406-1.164-1.222-1.164-.58 0-1.092.146-1.534.436l-.266-.86c.547-.338 1.222-.508 2.019-.508 1.538 0 2.31.812 2.31 2.437v2.17c0 .589.028 1.058.084 1.405zm-1.358-2.025v-.909c-1.443-.025-2.165.372-2.165 1.188 0 .308.083.537.251.691.169.154.384.23.64.23.287 0 .555-.091.8-.272a1.12 1.12 0 00.473-.928h.001zm8.792 2.025h-1.161l-.061-.946h-.037c-.37.72-1.002 1.08-1.89 1.08-.709 0-1.299-.279-1.767-.836-.468-.558-.702-1.282-.702-2.17 0-.954.254-1.726.763-2.316.493-.55 1.097-.825 1.816-.825.79 0 1.343.266 1.658.8h.025V8.194h1.31v7.009c0 .574.014 1.102.046 1.587v.001zm-1.356-2.485v-.982c0-.17-.013-.308-.036-.413a1.49 1.49 0 00-.473-.793 1.286 1.286 0 00-.875-.322c-.488 0-.87.194-1.151.583-.279.389-.42.885-.42 1.491 0 .582.134 1.055.402 1.419.284.387.666.581 1.144.581.43 0 .772-.161 1.033-.485.252-.299.376-.659.376-1.079zm12.544-.51c0 .906-.258 1.649-.775 2.231-.542.6-1.258.898-2.156.898-.863 0-1.55-.286-2.065-.861-.511-.574-.767-1.298-.767-2.17 0-.913.263-1.662.792-2.243.53-.581 1.241-.872 2.139-.872.862 0 1.557.286 2.082.86.5.557.75 1.277.75 2.157zm-1.356.043c0-.544-.117-1.01-.35-1.399-.276-.47-.666-.705-1.175-.705-.524 0-.924.235-1.2.705-.234.389-.35.862-.35 1.422 0 .544.117 1.01.35 1.4.284.47.678.704 1.187.704.5 0 .893-.239 1.175-.717.241-.396.363-.866.363-1.41zm8.39 2.952h-1.307v-3.375c0-1.04-.394-1.56-1.187-1.56-.388 0-.702.143-.944.429a1.517 1.517 0 00-.363 1.01v3.495h-1.31v-4.207c0-.518-.014-1.08-.046-1.687h1.149l.061.921h.036c.154-.286.38-.522.678-.71.356-.22.751-.332 1.187-.332.548 0 1.005.178 1.368.534.453.436.678 1.087.678 1.952v3.53zm8.804-4.911h-1.44v2.862c0 .728.256 1.092.762 1.092.235 0 .43-.02.583-.061l.034.993c-.258.098-.598.146-1.016.146-.517 0-.919-.157-1.21-.472-.292-.315-.437-.845-.437-1.589V11.88h-.86v-.981h.86v-1.08l1.282-.388v1.466h1.441v.983h.001zm6.925 4.911h-1.309v-3.35c0-1.056-.394-1.585-1.184-1.585-.607 0-1.021.306-1.249.919-.038.129-.06.286-.06.471v3.544h-1.308V8.195h1.307v3.551h.025c.412-.646 1.003-.969 1.768-.969.541 0 .99.178 1.345.534.444.444.666 1.104.666 1.976v3.504h-.001zm7.145-3.225c0 .235-.018.433-.049.594h-3.923c.017.582.204 1.026.568 1.334.332.275.76.412 1.284.412.58 0 1.11-.092 1.587-.279l.204.91c-.558.243-1.214.364-1.974.364-.912 0-1.63-.268-2.149-.806-.522-.538-.78-1.259-.78-2.164 0-.888.241-1.628.727-2.218.506-.63 1.192-.946 2.057-.946.846 0 1.489.316 1.923.946.351.5.525 1.118.525 1.853zm-1.249-.338c.01-.39-.076-.724-.253-1.007-.227-.364-.573-.546-1.041-.546-.427 0-.775.178-1.041.534a1.982 1.982 0 00-.388 1.019h2.723z" fill="currentColor"/></svg><svg fill="none" viewBox="0 0 79 37" id="googlepay-ico" xmlns="http://www.w3.org/2000/svg"><path d="M37.787 14.333v8.26h-2.59V2.202h6.872a6.129 6.129 0 014.441 1.775 5.928 5.928 0 01.29 8.324l-.29.293c-1.207 1.154-2.688 1.74-4.442 1.74h-4.281v-.001zm0-9.626v7.122h4.346c.966.032 1.9-.358 2.559-1.057 1.352-1.415 1.32-3.69-.08-5.057a3.519 3.519 0 00-2.48-1.008H37.787zm16.562 3.48c1.915 0 3.428.52 4.538 1.544 1.111 1.025 1.658 2.455 1.658 4.26v8.601h-2.478v-1.935h-.113c-1.078 1.594-2.495 2.39-4.281 2.39-1.513 0-2.8-.455-3.815-1.365a4.336 4.336 0 01-1.529-3.415c0-1.447.548-2.585 1.626-3.447 1.078-.861 2.527-1.284 4.33-1.284 1.544 0 2.8.293 3.798.845v-.601a3.07 3.07 0 00-1.063-2.325 3.743 3.743 0 00-2.494-.96c-1.449 0-2.591.618-3.428 1.854l-2.286-1.447c1.223-1.805 3.074-2.715 5.537-2.715zM51 18.316c0 .683.322 1.317.853 1.707.58.455 1.288.7 2.012.683 1.094 0 2.14-.439 2.913-1.22.853-.812 1.288-1.772 1.288-2.877-.805-.65-1.932-.976-3.38-.96-1.046 0-1.932.26-2.64.765-.692.504-1.046 1.138-1.046 1.902zm23.773-9.674l-8.659 20.08h-2.672l3.219-7.024L60.98 8.642h2.816L67.9 18.657h.049l4.007-10.015h2.817z" fill="currentColor"/><path d="M27.31 12.544c0-.797-.064-1.593-.193-2.374H16.19v4.504h6.261a5.42 5.42 0 01-2.318 3.56v2.927h3.734c2.19-2.032 3.445-5.04 3.445-8.617h-.002z" fill="#4285F4"/><path d="M16.19 23.99c3.121 0 5.761-1.04 7.676-2.829l-3.734-2.926c-1.046.715-2.382 1.121-3.943 1.121-3.026 0-5.585-2.064-6.502-4.828H5.84v3.024a11.565 11.565 0 0010.35 6.438z" fill="#34A853"/><path d="M9.687 14.528a7.131 7.131 0 010-4.488V7.032H5.84a11.71 11.71 0 000 10.503l3.847-3.007z" fill="#FBBC04"/><path d="M16.19 5.211a6.205 6.205 0 014.441 1.756l3.316-3.349a11.121 11.121 0 00-7.758-3.04c-4.378 0-8.385 2.503-10.349 6.454l3.847 3.024c.917-2.78 3.476-4.845 6.502-4.845h.001z" fill="#EA4335"/></svg><svg fill="none" viewBox="0 0 170 50" id="googleplay" xmlns="http://www.w3.org/2000/svg"><path d="M163.053 50H6.273C2.817 50 0 47.182 0 43.75V6.25C0 2.805 2.816 0 6.274 0h156.78c3.454 0 6.273 2.805 6.273 6.25v37.5c0 3.432-2.819 6.25-6.274 6.25z" fill="#000"/><path fill-rule="evenodd" clip-rule="evenodd" d="M163.053 1c2.9 0 5.274 2.36 5.274 5.25v37.5c0 2.89-2.358 5.25-5.274 5.25H6.273C3.374 49 1 46.64 1 43.75V6.25C1 3.36 3.358 1 6.274 1h156.78-.001zm0-1H6.273C2.817 0 0 2.818 0 6.25v37.5C0 47.195 2.816 50 6.274 50h156.78c3.454 0 6.273-2.805 6.273-6.25V6.25c0-3.432-2.819-6.25-6.274-6.25z" fill="#A6A6A6"/><path d="M89.202 16.54c-1.13 0-2.084-.396-2.838-1.175a4.006 4.006 0 01-1.146-2.868c0-1.138.386-2.101 1.146-2.865.751-.78 1.704-1.175 2.835-1.175 1.118 0 2.072.396 2.838 1.175.76.789 1.146 1.752 1.146 2.865-.012 1.14-.399 2.104-1.146 2.865-.75.785-1.704 1.178-2.835 1.178zm-33.645 0c-1.106 0-2.066-.39-2.85-1.16-.78-.767-1.175-1.736-1.175-2.88s.396-2.113 1.174-2.88c.77-.77 1.73-1.16 2.85-1.16.549 0 1.082.11 1.592.33.502.216.91.509 1.212.867l.075.09-.844.83-.087-.103c-.477-.568-1.116-.845-1.96-.845-.754 0-1.41.268-1.953.798-.545.533-.822 1.231-.822 2.076s.277 1.543.822 2.076c.542.53 1.2.798 1.953.798.804 0 1.48-.268 2.006-.798.312-.312.505-.748.573-1.3h-2.707v-1.166h3.87l.015.106c.028.197.056.4.056.586 0 1.076-.324 1.946-.966 2.588-.729.76-1.682 1.147-2.834 1.147zm44.735-.165h-1.193l-3.654-5.851.03 1.053v4.795h-1.192V8.625h1.361l.037.06 3.436 5.51-.03-1.05v-4.52h1.205v7.75zm-20.055 0h-1.209V9.79h-2.096V8.625h5.398v1.166h-2.096v6.584h.003zm-4.29 0h-1.205v-7.75h1.206v7.75h-.001zm-6.775 0h-1.205V9.79h-2.096V8.625h5.398v1.166h-2.097v6.584zm-4.065-.013h-4.622V8.625h4.622v1.166h-3.414v2.126h3.081v1.153h-3.08v2.126h3.413v1.166zm22.142-1.798c.539.539 1.193.81 1.953.81.782 0 1.42-.265 1.953-.81.53-.53.798-1.225.798-2.064s-.268-1.537-.795-2.064a2.672 2.672 0 00-1.953-.81c-.782 0-1.42.265-1.95.81-.53.53-.797 1.225-.797 2.064s.265 1.537.791 2.064z" fill="#fff"/><path fill-rule="evenodd" clip-rule="evenodd" d="M85.106 27.195c-2.944 0-5.33 2.235-5.33 5.317 0 3.055 2.402 5.318 5.33 5.318 2.944 0 5.33-2.25 5.33-5.318 0-3.082-2.386-5.317-5.33-5.317zm0 8.528c-1.61 0-2.997-1.334-2.997-3.223 0-1.917 1.39-3.223 2.997-3.223 1.61 0 2.997 1.306 2.997 3.223.003 1.901-1.387 3.223-2.997 3.223zm-11.629-8.528c-2.943 0-5.33 2.235-5.33 5.317 0 3.055 2.402 5.318 5.33 5.318 2.944 0 5.33-2.25 5.33-5.318 0-3.082-2.389-5.317-5.33-5.317zm0 8.528c-1.61 0-2.996-1.334-2.996-3.223 0-1.917 1.39-3.223 2.996-3.223 1.61 0 2.997 1.306 2.997 3.223 0 1.901-1.386 3.223-2.997 3.223zM59.64 28.82v2.25h5.399c-.165 1.263-.583 2.195-1.221 2.834-.791.792-2.013 1.652-4.165 1.652-3.318 0-5.912-2.68-5.912-6s2.594-6.001 5.912-6.001c1.791 0 3.096.707 4.065 1.611l1.595-1.596c-1.346-1.29-3.137-2.278-5.648-2.278-4.55 0-8.37 3.709-8.37 8.25 0 4.555 3.816 8.252 8.37 8.252 2.458 0 4.302-.804 5.76-2.32 1.486-1.486 1.956-3.584 1.956-5.277 0-.526-.04-1-.124-1.402h-7.62c.003-.003.003.025.003.025zm56.598 1.751c-.446-1.193-1.792-3.388-4.552-3.388-2.735 0-5.008 2.154-5.008 5.318 0 2.986 2.249 5.318 5.273 5.318 2.43 0 3.844-1.487 4.427-2.36l-1.804-1.21c-.598.89-1.43 1.472-2.61 1.472-1.193 0-2.028-.542-2.583-1.612l7.106-2.945c0 .003-.25-.593-.25-.593h.001zm-7.246 1.777c-.056-2.054 1.595-3.098 2.775-3.098.932 0 1.708.458 1.972 1.125l-4.747 1.973zM103.22 37.5h2.333V21.877h-2.333V37.5zm-3.832-9.124h-.084c-.526-.627-1.526-1.194-2.803-1.194-2.651 0-5.093 2.335-5.093 5.334 0 2.986 2.43 5.293 5.093 5.293 1.261 0 2.277-.57 2.803-1.21h.084v.764c0 2.03-1.084 3.123-2.831 3.123-1.43 0-2.318-1.028-2.68-1.889l-2.027.848c.582 1.403 2.137 3.14 4.704 3.14 2.735 0 5.052-1.612 5.052-5.543V27.5h-2.205v.876h-.013zm-2.679 7.347c-1.61 0-2.956-1.346-2.956-3.207 0-1.877 1.346-3.236 2.956-3.236 1.595 0 2.832 1.375 2.832 3.236.016 1.86-1.234 3.207-2.832 3.207zm30.453-13.846h-5.579V37.5h2.333v-5.916h3.25c2.581 0 5.12-1.874 5.12-4.848 0-2.974-2.53-4.86-5.124-4.86v.001zm.069 7.524h-3.318V24.04h3.318c1.747 0 2.735 1.443 2.735 2.68 0 1.226-1 2.681-2.735 2.681zm14.407-2.235c-1.695 0-3.443.752-4.165 2.388l2.068.86c.446-.86 1.262-1.153 2.125-1.153 1.208 0 2.43.723 2.457 2.014v.165c-.417-.237-1.333-.598-2.43-.598-2.233 0-4.497 1.222-4.497 3.513 0 2.098 1.831 3.444 3.872 3.444 1.566 0 2.43-.707 2.968-1.527h.084v1.21h2.25v-5.986c0-2.787-2.07-4.33-4.732-4.33zm-.293 8.557c-.763 0-1.832-.374-1.832-1.334 0-1.21 1.333-1.668 2.47-1.668 1.028 0 1.514.222 2.125.527a2.808 2.808 0 01-2.763 2.475zm13.23-8.223l-2.68 6.777h-.084l-2.775-6.777h-2.511l4.165 9.473-2.374 5.265h2.43l6.408-14.738h-2.58.001zm-21.002 10h2.333V21.877h-2.333V37.5z" fill="#fff"/><path fill-rule="evenodd" clip-rule="evenodd" d="M13.033 9.417c-.361.39-.57.985-.57 1.764v27.64c0 .78.209 1.375.583 1.75l.096.084 15.476-15.487v-.346L13.13 9.332l-.097.085z" fill="url(#dpaint0_linear)"/><path fill-rule="evenodd" clip-rule="evenodd" d="M33.767 30.346l-5.162-5.165v-.362l5.162-5.165.112.069 6.106 3.472c1.747.985 1.747 2.612 0 3.61l-6.106 3.472-.112.069z" fill="url(#dpaint1_linear)"/><path fill-rule="evenodd" clip-rule="evenodd" d="M33.88 30.277L28.604 25 13.033 40.583c.57.61 1.527.68 2.595.084l18.251-10.39" fill="url(#dpaint2_linear)"/><path fill-rule="evenodd" clip-rule="evenodd" d="M33.88 19.723L15.627 9.35c-1.068-.61-2.028-.527-2.595.084L28.605 25l5.274-5.277h.001z" fill="url(#dpaint3_linear)"/><path opacity=".2" d="M33.767 30.165L15.641 40.471c-1.013.583-1.916.542-2.499.012l-.096.097.096.084c.583.527 1.486.57 2.499-.013l18.25-10.374-.124-.112z" fill="#000"/><path opacity=".12" d="M39.985 26.624l-6.234 3.541.113.112 6.105-3.472c.875-.499 1.305-1.154 1.305-1.805-.053.599-.498 1.166-1.29 1.624h.001z" fill="#000"/><path opacity=".25" fill-rule="evenodd" clip-rule="evenodd" d="M15.628 9.53l24.357 13.846c.79.446 1.236 1.029 1.305 1.624 0-.651-.43-1.306-1.305-1.805L15.628 9.35c-1.747-1.001-3.165-.166-3.165 1.832v.18c0-2 1.418-2.82 3.165-1.832z" fill="#fff"/><defs><linearGradient id="dpaint0_linear" x1="22.32" y1="10.883" x2="9.044" y2="24.167" gradientUnits="userSpaceOnUse"><stop stop-color="#00A0FF"/><stop offset=".007" stop-color="#00A1FF"/><stop offset=".26" stop-color="#00BEFF"/><stop offset=".512" stop-color="#00D2FF"/><stop offset=".76" stop-color="#00DFFF"/><stop offset="1" stop-color="#00E3FF"/></linearGradient><linearGradient id="dpaint1_linear" x1="42.264" y1="25" x2="12.038" y2="25" gradientUnits="userSpaceOnUse"><stop stop-color="#FFE000"/><stop offset=".409" stop-color="#FFBD00"/><stop offset=".775" stop-color="orange"/><stop offset="1" stop-color="#FF9C00"/></linearGradient><linearGradient id="dpaint2_linear" x1="31.012" y1="29.965" x2="8.345" y2="52.648" gradientUnits="userSpaceOnUse"><stop stop-color="#FF3A44"/><stop offset="1" stop-color="#C31162"/></linearGradient><linearGradient id="dpaint3_linear" x1="9.11" y1="7.017" x2="19.227" y2="17.142" gradientUnits="userSpaceOnUse"><stop stop-color="#32A071"/><stop offset=".069" stop-color="#2DA771"/><stop offset=".476" stop-color="#15CF74"/><stop offset=".801" stop-color="#06E775"/><stop offset="1" stop-color="#00F076"/></linearGradient></defs></svg><svg fill="none" viewBox="0 0 39 40" id="logo" xmlns="http://www.w3.org/2000/svg"><path fill-rule="evenodd" clip-rule="evenodd" d="M36.862 11.993a5.613 5.613 0 00-7.174-1.975 5.509 5.509 0 00-2.428 7.412 5.525 5.525 0 003.97 2.936c-.208 6.546-5.695 11.684-12.255 11.477-6.372-.202-11.45-5.384-11.507-11.745a11.686 11.686 0 017.65-10.987 1.87 1.87 0 001.193-2.162l-.014-.059a1.862 1.862 0 011.66-2.264 15.429 15.429 0 013.126.031 1.89 1.89 0 002.095-1.774 1.94 1.94 0 00-1.78-1.985 19.59 19.59 0 00-2.046-.107C8.664.791 0 9.436 0 20.101s8.665 19.31 19.353 19.31c10.688 0 19.352-8.646 19.352-19.31 0-1.888-.38-5.958-1.843-8.108z" fill="#222"/></svg><svg fill="none" viewBox="0 0 57 36" id="mastercard-logo" xmlns="http://www.w3.org/2000/svg"><path fill-rule="evenodd" clip-rule="evenodd" d="M21.062 31.972h15.303V4.633H21.062v27.34z" fill="#EA5C0F"/><path fill-rule="evenodd" clip-rule="evenodd" d="M22.033 18.303c0-5.546 2.612-10.485 6.68-13.669A17.48 17.48 0 0017.904.917C8.246.917.416 8.7.416 18.303S8.246 35.69 17.904 35.69c4.08 0 7.834-1.389 10.81-3.718-4.069-3.184-6.68-8.123-6.68-13.669z" fill="#DD0C17"/><path fill-rule="evenodd" clip-rule="evenodd" d="M57.01 18.303c0 9.602-7.829 17.387-17.488 17.387-4.08 0-7.833-1.389-10.808-3.718 4.067-3.184 6.68-8.123 6.68-13.669 0-5.546-2.613-10.485-6.68-13.669A17.478 17.478 0 0139.522.917c9.66 0 17.489 7.784 17.489 17.386z" fill="#F79E1B"/><path fill-rule="evenodd" clip-rule="evenodd" d="M56.465 29.235v-.833h-.177l-.204.573-.204-.573h-.178v.833h.126v-.628l.19.542h.13l.192-.543v.63h.125zm-1.123 0v-.691h.227v-.14h-.578v.14h.227v.691h.124z" fill="#F69F00"/></svg></defs></svg>