<?xml version="1.0" encoding="utf-8"?><svg xmlns="http://www.w3.org/2000/svg" xmlns:xlink="http://www.w3.org/1999/xlink"><defs><svg fill="none" viewBox="0 0 68 28" id="applepay-ico" xmlns="http://www.w3.org/2000/svg"><path fill-rule="evenodd" clip-rule="evenodd" d="M12.59 3.572c.76-.96 1.276-2.25 1.14-3.567-1.114.055-2.473.74-3.26 1.702-.706.823-1.331 2.167-1.168 3.429 1.25.11 2.499-.63 3.287-1.564h.001zm1.125 1.81c-1.815-.11-3.359 1.04-4.226 1.04s-2.194-.984-3.63-.958c-1.87.028-3.604 1.094-4.552 2.79-1.95 3.394-.515 8.427 1.382 11.19.921 1.368 2.031 2.873 3.494 2.82 1.383-.055 1.924-.904 3.604-.904 1.68 0 2.168.903 3.63.876 1.518-.027 2.467-1.368 3.388-2.736 1.056-1.56 1.49-3.064 1.516-3.147-.027-.027-2.925-1.15-2.952-4.514-.028-2.818 2.275-4.158 2.383-4.242-1.3-1.94-3.332-2.16-4.037-2.214zm13.635 7.026h3.62c2.749 0 4.313-1.494 4.313-4.082 0-2.59-1.564-4.068-4.298-4.068h-3.636v8.15h.001zM31.817 1.57c3.946 0 6.694 2.745 6.694 6.74 0 4.012-2.805 6.77-6.793 6.77H27.35v7.013h-3.157V1.57h7.625-.001zm17.06 14.948v-1.152l-3.51.227c-1.972.128-3.001.868-3.001 2.162 0 1.252 1.071 2.063 2.748 2.063 2.143 0 3.763-1.38 3.763-3.3zm-9.583 1.323c0-2.632 1.987-4.14 5.65-4.367l3.933-.242v-1.137c0-1.664-1.085-2.575-3.016-2.575-1.593 0-2.748.825-2.987 2.09h-2.847c.084-2.66 2.564-4.592 5.92-4.592 3.606 0 5.96 1.905 5.96 4.863v10.212h-2.918v-2.46h-.07c-.832 1.607-2.664 2.617-4.65 2.617-2.931 0-4.975-1.764-4.975-4.41zm15.295 9.742v-2.46c.197.028.676.057.93.057 1.395 0 2.184-.597 2.663-2.134l.282-.91-5.34-14.934h3.297l3.72 12.117h.07l3.72-12.117h3.214L61.607 22.89c-1.269 3.598-2.72 4.779-5.792 4.779-.24 0-1.015-.03-1.226-.086z" fill="currentColor"/></svg><svg fill="none" viewBox="0 0 169 50" id="appstore" xmlns="http://www.w3.org/2000/svg"><path d="M162.523 50H5.903C2.65 50 0 47.34 0 44.084V5.907A5.912 5.912 0 015.903 0h156.62c3.253 0 5.996 2.65 5.996 5.907v38.177c0 3.256-2.743 5.916-5.996 5.916z" fill="#A6A6A6"/><path d="M167.31 44.085a4.785 4.785 0 01-4.786 4.788H5.904a4.79 4.79 0 01-4.793-4.788V5.906a4.796 4.796 0 014.792-4.793h156.62a4.79 4.79 0 014.787 4.793v38.179z" fill="var(--appstore-background, #000)"/><path d="M37.609 24.73c-.036-4.029 3.294-5.989 3.446-6.08-1.886-2.754-4.81-3.13-5.837-3.16-2.455-.259-4.837 1.471-6.087 1.471-1.276 0-3.202-1.446-5.278-1.404-2.672.042-5.17 1.59-6.541 3.995-2.829 4.904-.72 12.11 1.99 16.074 1.356 1.941 2.94 4.109 5.014 4.033 2.028-.084 2.786-1.295 5.234-1.295 2.425 0 3.137 1.295 5.252 1.246 2.177-.035 3.547-1.95 4.855-3.909 1.567-2.225 2.196-4.416 2.221-4.529-.051-.017-4.228-1.613-4.27-6.442h.001zm-3.995-11.847c1.091-1.367 1.838-3.225 1.63-5.112-1.578.07-3.553 1.094-4.69 2.43-1.007 1.179-1.905 3.109-1.674 4.923 1.774.132 3.595-.896 4.733-2.241h.001zM66.964 39.38h-2.835l-1.552-4.886h-5.399l-1.48 4.886H52.94l5.348-16.635h3.303l5.374 16.635h-.001zm-4.856-6.936L60.704 28.1c-.148-.444-.427-1.489-.837-3.134h-.05c-.164.708-.427 1.753-.79 3.134l-1.379 4.344h4.46zm18.609.791c0 2.04-.55 3.652-1.652 4.836-.986 1.054-2.21 1.58-3.672 1.58-1.578 0-2.712-.567-3.402-1.702h-.05v6.318H69.28V31.334c0-1.283-.034-2.599-.099-3.949h2.34l.15 1.901h.05c.887-1.432 2.234-2.147 4.041-2.147 1.413 0 2.593.558 3.537 1.677.946 1.12 1.418 2.593 1.418 4.419zm-2.712.098c0-1.168-.262-2.13-.789-2.888-.575-.79-1.348-1.185-2.316-1.185-.657 0-1.254.22-1.787.654-.534.437-.883 1.008-1.047 1.716-.082.33-.124.6-.124.813v2c0 .872.268 1.608.802 2.21.534.6 1.228.9 2.082.9 1.002 0 1.783-.387 2.34-1.16.56-.773.84-1.793.84-3.06h-.001zm16.489-.098c0 2.04-.55 3.652-1.653 4.836-.985 1.054-2.21 1.58-3.671 1.58-1.578 0-2.711-.567-3.4-1.702h-.05v6.318h-2.662V31.334c0-1.283-.033-2.599-.098-3.949h2.34l.149 1.901h.05c.886-1.432 2.233-2.147 4.042-2.147 1.412 0 2.591.558 3.537 1.677.943 1.12 1.416 2.593 1.416 4.419zm-2.711.098c0-1.168-.264-2.13-.79-2.888-.576-.79-1.346-1.185-2.316-1.185-.658 0-1.253.22-1.788.654-.534.437-.882 1.008-1.046 1.716-.08.33-.123.6-.123.813v2c0 .872.267 1.608.799 2.21.534.6 1.228.9 2.084.9 1.003 0 1.783-.387 2.34-1.16.56-.773.84-1.793.84-3.06zm18.115 1.382c0 1.415-.49 2.566-1.476 3.455-1.082.971-2.589 1.456-4.525 1.456-1.787 0-3.22-.345-4.305-1.036l.617-2.221a7.29 7.29 0 003.847 1.062c1.002 0 1.782-.227 2.343-.68.558-.452.836-1.06.836-1.817 0-.675-.23-1.244-.69-1.705-.458-.461-1.223-.89-2.292-1.286-2.908-1.087-4.361-2.678-4.361-4.77 0-1.368.509-2.49 1.529-3.362 1.016-.873 2.371-1.31 4.067-1.31 1.511 0 2.767.264 3.77.79l-.666 2.173c-.936-.51-1.995-.765-3.18-.765-.935 0-1.667.231-2.191.691a1.978 1.978 0 00-.666 1.506c0 .658.254 1.202.763 1.629.443.395 1.248.822 2.417 1.284 1.43.576 2.479 1.25 3.154 2.022.673.77 1.009 1.734 1.009 2.884zm8.799-5.33h-2.933v5.824c0 1.481.516 2.221 1.552 2.221.476 0 .87-.041 1.182-.124l.074 2.024c-.524.196-1.214.295-2.07.295-1.05 0-1.872-.321-2.465-.962-.59-.643-.887-1.72-.887-3.234v-6.046h-1.748v-2h1.748v-2.197l2.614-.79v2.987h2.933v2.002zm13.236 3.899c0 1.843-.527 3.357-1.578 4.541-1.103 1.219-2.566 1.826-4.39 1.826-1.757 0-3.156-.584-4.2-1.751-1.043-1.168-1.565-2.641-1.565-4.418 0-1.858.537-3.38 1.614-4.564 1.074-1.186 2.524-1.778 4.349-1.778 1.758 0 3.172.584 4.24 1.753 1.02 1.133 1.53 2.597 1.53 4.39v.001zm-2.762.086c0-1.106-.236-2.055-.714-2.846-.558-.958-1.355-1.435-2.389-1.435-1.07 0-1.882.478-2.44 1.435-.478.792-.714 1.756-.714 2.896 0 1.106.236 2.055.714 2.845.575.957 1.38 1.435 2.416 1.435 1.016 0 1.814-.487 2.39-1.46.49-.806.737-1.765.737-2.87zm11.412-3.641a4.588 4.588 0 00-.839-.074c-.936 0-1.66.354-2.17 1.062-.442.625-.665 1.415-.665 2.37v6.293h-2.66l.025-8.217c0-1.383-.033-2.642-.1-3.777h2.319l.097 2.295h.074c.28-.788.724-1.423 1.33-1.9.593-.428 1.234-.642 1.924-.642.246 0 .468.017.665.048v2.543-.001zm11.903 3.086c0 .478-.032.88-.098 1.209h-7.984c.031 1.185.417 2.091 1.159 2.716.672.559 1.542.839 2.611.839 1.182 0 2.26-.189 3.23-.568l.417 1.85c-1.133.495-2.471.741-4.015.741-1.858 0-3.316-.547-4.377-1.64-1.058-1.095-1.589-2.563-1.589-4.406 0-1.808.493-3.315 1.48-4.516 1.034-1.282 2.431-1.924 4.189-1.924 1.726 0 3.033.642 3.92 1.924.703 1.019 1.057 2.279 1.057 3.775zm-2.538-.691c.017-.79-.156-1.473-.517-2.049-.46-.741-1.168-1.111-2.12-1.111-.87 0-1.579.361-2.12 1.086-.442.576-.706 1.268-.787 2.073h5.544v.001zM61.228 12.511c0 1.471-.44 2.579-1.32 3.323-.816.686-1.974 1.03-3.475 1.03-.744 0-1.38-.033-1.913-.098V8.727c.695-.112 1.444-.17 2.253-.17 1.43 0 2.507.312 3.233.934.814.704 1.222 1.71 1.222 3.02zm-1.38.037c0-.954-.251-1.686-.756-2.196-.504-.508-1.24-.763-2.21-.763-.412 0-.763.027-1.054.085v6.111c.161.025.456.036.884.036 1.001 0 1.774-.278 2.318-.836.544-.558.819-1.37.819-2.438l-.001.001zm8.694 1.248c0 .906-.259 1.649-.775 2.231-.542.6-1.26.898-2.156.898-.864 0-1.552-.286-2.065-.861-.512-.574-.768-1.298-.768-2.17 0-.913.264-1.662.793-2.243.53-.581 1.241-.872 2.137-.872.864 0 1.558.286 2.084.86.499.557.75 1.277.75 2.157zm-1.357.043c0-.544-.117-1.01-.35-1.399-.275-.47-.666-.705-1.174-.705-.526 0-.925.235-1.2.705-.234.389-.35.862-.35 1.422 0 .544.117 1.01.35 1.4.284.47.678.704 1.187.704.5 0 .892-.239 1.174-.717.242-.396.363-.866.363-1.41zm11.163-2.94l-1.84 5.892h-1.2l-.762-2.559a19.43 19.43 0 01-.473-1.903h-.024c-.113.647-.27 1.281-.473 1.904l-.81 2.558h-1.212L69.823 10.9h1.344l.665 2.801c.161.662.294 1.294.4 1.891h.023c.098-.492.259-1.12.486-1.878l.835-2.814h1.066l.8 2.752c.194.672.351 1.318.472 1.94h.036a18.77 18.77 0 01.4-1.94l.714-2.752h1.284v-.001zm6.782 5.892h-1.308v-3.375c0-1.04-.394-1.56-1.186-1.56-.388 0-.701.143-.945.429-.24.286-.363.624-.363 1.01v3.495H80.02v-4.207c0-.518-.016-1.08-.048-1.687h1.15l.061.921h.036c.153-.286.38-.522.678-.71.355-.22.752-.332 1.186-.332.55 0 1.006.178 1.37.534.451.436.677 1.087.677 1.952v3.53zm3.608 0h-1.307V8.195h1.307v8.596zm7.702-2.995c0 .906-.259 1.649-.775 2.231-.542.6-1.261.898-2.156.898-.865 0-1.553-.286-2.065-.861-.512-.574-.768-1.298-.768-2.17 0-.913.264-1.662.793-2.243.53-.581 1.24-.872 2.136-.872.865 0 1.558.286 2.085.86.499.557.75 1.277.75 2.157zm-1.358.043c0-.544-.118-1.01-.351-1.399-.274-.47-.665-.705-1.172-.705-.527 0-.927.235-1.2.705-.235.389-.35.862-.35 1.422 0 .544.117 1.01.35 1.4.283.47.678.704 1.187.704.5 0 .89-.239 1.172-.717.244-.396.364-.866.364-1.41zm7.689 2.952h-1.175l-.097-.678h-.036c-.402.54-.975.812-1.719.812-.556 0-1.005-.179-1.343-.534-.307-.322-.46-.723-.46-1.2 0-.72.299-1.268.902-1.648.601-.38 1.448-.567 2.537-.558v-.11c0-.776-.406-1.164-1.222-1.164-.58 0-1.092.146-1.534.436l-.266-.86c.547-.338 1.222-.508 2.019-.508 1.538 0 2.31.812 2.31 2.437v2.17c0 .589.028 1.058.084 1.405zm-1.358-2.025v-.909c-1.443-.025-2.165.372-2.165 1.188 0 .308.083.537.251.691.169.154.384.23.64.23.287 0 .555-.091.8-.272a1.12 1.12 0 00.473-.928h.001zm8.792 2.025h-1.161l-.061-.946h-.037c-.37.72-1.002 1.08-1.89 1.08-.709 0-1.299-.279-1.767-.836-.468-.558-.702-1.282-.702-2.17 0-.954.254-1.726.763-2.316.493-.55 1.097-.825 1.816-.825.79 0 1.343.266 1.658.8h.025V8.194h1.31v7.009c0 .574.014 1.102.046 1.587v.001zm-1.356-2.485v-.982c0-.17-.013-.308-.036-.413a1.49 1.49 0 00-.473-.793 1.286 1.286 0 00-.875-.322c-.488 0-.87.194-1.151.583-.279.389-.42.885-.42 1.491 0 .582.134 1.055.402 1.419.284.387.666.581 1.144.581.43 0 .772-.161 1.033-.485.252-.299.376-.659.376-1.079zm12.544-.51c0 .906-.258 1.649-.775 2.231-.542.6-1.258.898-2.156.898-.863 0-1.55-.286-2.065-.861-.511-.574-.767-1.298-.767-2.17 0-.913.263-1.662.792-2.243.53-.581 1.241-.872 2.139-.872.862 0 1.557.286 2.082.86.5.557.75 1.277.75 2.157zm-1.356.043c0-.544-.117-1.01-.35-1.399-.276-.47-.666-.705-1.175-.705-.524 0-.924.235-1.2.705-.234.389-.35.862-.35 1.422 0 .544.117 1.01.35 1.4.284.47.678.704 1.187.704.5 0 .893-.239 1.175-.717.241-.396.363-.866.363-1.41zm8.39 2.952h-1.307v-3.375c0-1.04-.394-1.56-1.187-1.56-.388 0-.702.143-.944.429a1.517 1.517 0 00-.363 1.01v3.495h-1.31v-4.207c0-.518-.014-1.08-.046-1.687h1.149l.061.921h.036c.154-.286.38-.522.678-.71.356-.22.751-.332 1.187-.332.548 0 1.005.178 1.368.534.453.436.678 1.087.678 1.952v3.53zm8.804-4.911h-1.44v2.862c0 .728.256 1.092.762 1.092.235 0 .43-.02.583-.061l.034.993c-.258.098-.598.146-1.016.146-.517 0-.919-.157-1.21-.472-.292-.315-.437-.845-.437-1.589V11.88h-.86v-.981h.86v-1.08l1.282-.388v1.466h1.441v.983h.001zm6.925 4.911h-1.309v-3.35c0-1.056-.394-1.585-1.184-1.585-.607 0-1.021.306-1.249.919-.038.129-.06.286-.06.471v3.544h-1.308V8.195h1.307v3.551h.025c.412-.646 1.003-.969 1.768-.969.541 0 .99.178 1.345.534.444.444.666 1.104.666 1.976v3.504h-.001zm7.145-3.225c0 .235-.018.433-.049.594h-3.923c.017.582.204 1.026.568 1.334.332.275.76.412 1.284.412.58 0 1.11-.092 1.587-.279l.204.91c-.558.243-1.214.364-1.974.364-.912 0-1.63-.268-2.149-.806-.522-.538-.78-1.259-.78-2.164 0-.888.241-1.628.727-2.218.506-.63 1.192-.946 2.057-.946.846 0 1.489.316 1.923.946.351.5.525 1.118.525 1.853zm-1.249-.338c.01-.39-.076-.724-.253-1.007-.227-.364-.573-.546-1.041-.546-.427 0-.775.178-1.041.534a1.982 1.982 0 00-.388 1.019h2.723z" fill="currentColor"/></svg><svg fill="none" viewBox="0 0 79 37" id="googlepay-ico" xmlns="http://www.w3.org/2000/svg"><path d="M37.787 14.333v8.26h-2.59V2.202h6.872a6.129 6.129 0 014.441 1.775 5.928 5.928 0 01.29 8.324l-.29.293c-1.207 1.154-2.688 1.74-4.442 1.74h-4.281v-.001zm0-9.626v7.122h4.346c.966.032 1.9-.358 2.559-1.057 1.352-1.415 1.32-3.69-.08-5.057a3.519 3.519 0 00-2.48-1.008H37.787zm16.562 3.48c1.915 0 3.428.52 4.538 1.544 1.111 1.025 1.658 2.455 1.658 4.26v8.601h-2.478v-1.935h-.113c-1.078 1.594-2.495 2.39-4.281 2.39-1.513 0-2.8-.455-3.815-1.365a4.336 4.336 0 01-1.529-3.415c0-1.447.548-2.585 1.626-3.447 1.078-.861 2.527-1.284 4.33-1.284 1.544 0 2.8.293 3.798.845v-.601a3.07 3.07 0 00-1.063-2.325 3.743 3.743 0 00-2.494-.96c-1.449 0-2.591.618-3.428 1.854l-2.286-1.447c1.223-1.805 3.074-2.715 5.537-2.715zM51 18.316c0 .683.322 1.317.853 1.707.58.455 1.288.7 2.012.683 1.094 0 2.14-.439 2.913-1.22.853-.812 1.288-1.772 1.288-2.877-.805-.65-1.932-.976-3.38-.96-1.046 0-1.932.26-2.64.765-.692.504-1.046 1.138-1.046 1.902zm23.773-9.674l-8.659 20.08h-2.672l3.219-7.024L60.98 8.642h2.816L67.9 18.657h.049l4.007-10.015h2.817z" fill="currentColor"/><path d="M27.31 12.544c0-.797-.064-1.593-.193-2.374H16.19v4.504h6.261a5.42 5.42 0 01-2.318 3.56v2.927h3.734c2.19-2.032 3.445-5.04 3.445-8.617h-.002z" fill="#4285F4"/><path d="M16.19 23.99c3.121 0 5.761-1.04 7.676-2.829l-3.734-2.926c-1.046.715-2.382 1.121-3.943 1.121-3.026 0-5.585-2.064-6.502-4.828H5.84v3.024a11.565 11.565 0 0010.35 6.438z" fill="#34A853"/><path d="M9.687 14.528a7.131 7.131 0 010-4.488V7.032H5.84a11.71 11.71 0 000 10.503l3.847-3.007z" fill="#FBBC04"/><path d="M16.19 5.211a6.205 6.205 0 014.441 1.756l3.316-3.349a11.121 11.121 0 00-7.758-3.04c-4.378 0-8.385 2.503-10.349 6.454l3.847 3.024c.917-2.78 3.476-4.845 6.502-4.845h.001z" fill="#EA4335"/></svg><svg fill="none" viewBox="0 0 170 50" id="googleplay" xmlns="http://www.w3.org/2000/svg"><path d="M163.053 50H6.273C2.817 50 0 47.182 0 43.75V6.25C0 2.805 2.816 0 6.274 0h156.78c3.454 0 6.273 2.805 6.273 6.25v37.5c0 3.432-2.819 6.25-6.274 6.25z" fill="var(--googleplay-background, #000)"/><path fill-rule="evenodd" clip-rule="evenodd" d="M163.053 1c2.9 0 5.274 2.36 5.274 5.25v37.5c0 2.89-2.358 5.25-5.274 5.25H6.273C3.374 49 1 46.64 1 43.75V6.25C1 3.36 3.358 1 6.274 1h156.78-.001zm0-1H6.273C2.817 0 0 2.818 0 6.25v37.5C0 47.195 2.816 50 6.274 50h156.78c3.454 0 6.273-2.805 6.273-6.25V6.25c0-3.432-2.819-6.25-6.274-6.25z" fill="currentcolor"/><path d="M89.202 16.54c-1.13 0-2.084-.396-2.838-1.175a4.006 4.006 0 01-1.146-2.868c0-1.138.386-2.101 1.146-2.865.751-.78 1.704-1.175 2.835-1.175 1.118 0 2.072.396 2.838 1.175.76.789 1.146 1.752 1.146 2.865-.012 1.14-.399 2.104-1.146 2.865-.75.785-1.704 1.178-2.835 1.178zm-33.645 0c-1.106 0-2.066-.39-2.85-1.16-.78-.767-1.175-1.736-1.175-2.88s.396-2.113 1.174-2.88c.77-.77 1.73-1.16 2.85-1.16.549 0 1.082.11 1.592.33.502.216.91.509 1.212.867l.075.09-.844.83-.087-.103c-.477-.568-1.116-.845-1.96-.845-.754 0-1.41.268-1.953.798-.545.533-.822 1.231-.822 2.076s.277 1.543.822 2.076c.542.53 1.2.798 1.953.798.804 0 1.48-.268 2.006-.798.312-.312.505-.748.573-1.3h-2.707v-1.166h3.87l.015.106c.028.197.056.4.056.586 0 1.076-.324 1.946-.966 2.588-.729.76-1.682 1.147-2.834 1.147zm44.735-.165h-1.193l-3.654-5.851.03 1.053v4.795h-1.192V8.625h1.361l.037.06 3.436 5.51-.03-1.05v-4.52h1.205v7.75zm-20.055 0h-1.209V9.79h-2.096V8.625h5.398v1.166h-2.096v6.584h.003zm-4.29 0h-1.205v-7.75h1.206v7.75h-.001zm-6.775 0h-1.205V9.79h-2.096V8.625h5.398v1.166h-2.097v6.584zm-4.065-.013h-4.622V8.625h4.622v1.166h-3.414v2.126h3.081v1.153h-3.08v2.126h3.413v1.166zm22.142-1.798c.539.539 1.193.81 1.953.81.782 0 1.42-.265 1.953-.81.53-.53.798-1.225.798-2.064s-.268-1.537-.795-2.064a2.672 2.672 0 00-1.953-.81c-.782 0-1.42.265-1.95.81-.53.53-.797 1.225-.797 2.064s.265 1.537.791 2.064z" fill="currentcolor"/><path fill-rule="evenodd" clip-rule="evenodd" d="M85.106 27.195c-2.944 0-5.33 2.235-5.33 5.317 0 3.055 2.402 5.318 5.33 5.318 2.944 0 5.33-2.25 5.33-5.318 0-3.082-2.386-5.317-5.33-5.317zm0 8.528c-1.61 0-2.997-1.334-2.997-3.223 0-1.917 1.39-3.223 2.997-3.223 1.61 0 2.997 1.306 2.997 3.223.003 1.901-1.387 3.223-2.997 3.223zm-11.629-8.528c-2.943 0-5.33 2.235-5.33 5.317 0 3.055 2.402 5.318 5.33 5.318 2.944 0 5.33-2.25 5.33-5.318 0-3.082-2.389-5.317-5.33-5.317zm0 8.528c-1.61 0-2.996-1.334-2.996-3.223 0-1.917 1.39-3.223 2.996-3.223 1.61 0 2.997 1.306 2.997 3.223 0 1.901-1.386 3.223-2.997 3.223zM59.64 28.82v2.25h5.399c-.165 1.263-.583 2.195-1.221 2.834-.791.792-2.013 1.652-4.165 1.652-3.318 0-5.912-2.68-5.912-6s2.594-6.001 5.912-6.001c1.791 0 3.096.707 4.065 1.611l1.595-1.596c-1.346-1.29-3.137-2.278-5.648-2.278-4.55 0-8.37 3.709-8.37 8.25 0 4.555 3.816 8.252 8.37 8.252 2.458 0 4.302-.804 5.76-2.32 1.486-1.486 1.956-3.584 1.956-5.277 0-.526-.04-1-.124-1.402h-7.62c.003-.003.003.025.003.025zm56.598 1.751c-.446-1.193-1.792-3.388-4.552-3.388-2.735 0-5.008 2.154-5.008 5.318 0 2.986 2.249 5.318 5.273 5.318 2.43 0 3.844-1.487 4.427-2.36l-1.804-1.21c-.598.89-1.43 1.472-2.61 1.472-1.193 0-2.028-.542-2.583-1.612l7.106-2.945c0 .003-.25-.593-.25-.593h.001zm-7.246 1.777c-.056-2.054 1.595-3.098 2.775-3.098.932 0 1.708.458 1.972 1.125l-4.747 1.973zM103.22 37.5h2.333V21.877h-2.333V37.5zm-3.832-9.124h-.084c-.526-.627-1.526-1.194-2.803-1.194-2.651 0-5.093 2.335-5.093 5.334 0 2.986 2.43 5.293 5.093 5.293 1.261 0 2.277-.57 2.803-1.21h.084v.764c0 2.03-1.084 3.123-2.831 3.123-1.43 0-2.318-1.028-2.68-1.889l-2.027.848c.582 1.403 2.137 3.14 4.704 3.14 2.735 0 5.052-1.612 5.052-5.543V27.5h-2.205v.876h-.013zm-2.679 7.347c-1.61 0-2.956-1.346-2.956-3.207 0-1.877 1.346-3.236 2.956-3.236 1.595 0 2.832 1.375 2.832 3.236.016 1.86-1.234 3.207-2.832 3.207zm30.453-13.846h-5.579V37.5h2.333v-5.916h3.25c2.581 0 5.12-1.874 5.12-4.848 0-2.974-2.53-4.86-5.124-4.86v.001zm.069 7.524h-3.318V24.04h3.318c1.747 0 2.735 1.443 2.735 2.68 0 1.226-1 2.681-2.735 2.681zm14.407-2.235c-1.695 0-3.443.752-4.165 2.388l2.068.86c.446-.86 1.262-1.153 2.125-1.153 1.208 0 2.43.723 2.457 2.014v.165c-.417-.237-1.333-.598-2.43-.598-2.233 0-4.497 1.222-4.497 3.513 0 2.098 1.831 3.444 3.872 3.444 1.566 0 2.43-.707 2.968-1.527h.084v1.21h2.25v-5.986c0-2.787-2.07-4.33-4.732-4.33zm-.293 8.557c-.763 0-1.832-.374-1.832-1.334 0-1.21 1.333-1.668 2.47-1.668 1.028 0 1.514.222 2.125.527a2.808 2.808 0 01-2.763 2.475zm13.23-8.223l-2.68 6.777h-.084l-2.775-6.777h-2.511l4.165 9.473-2.374 5.265h2.43l6.408-14.738h-2.58.001zm-21.002 10h2.333V21.877h-2.333V37.5z" fill="currentcolor"/><path fill-rule="evenodd" clip-rule="evenodd" d="M13.033 9.417c-.361.39-.57.985-.57 1.764v27.64c0 .78.209 1.375.583 1.75l.096.084 15.476-15.487v-.346L13.13 9.332l-.097.085z" fill="url(#dpaint0_linear)"/><path fill-rule="evenodd" clip-rule="evenodd" d="M33.767 30.346l-5.162-5.165v-.362l5.162-5.165.112.069 6.106 3.472c1.747.985 1.747 2.612 0 3.61l-6.106 3.472-.112.069z" fill="url(#dpaint1_linear)"/><path fill-rule="evenodd" clip-rule="evenodd" d="M33.88 30.277L28.604 25 13.033 40.583c.57.61 1.527.68 2.595.084l18.251-10.39" fill="url(#dpaint2_linear)"/><path fill-rule="evenodd" clip-rule="evenodd" d="M33.88 19.723L15.627 9.349c-1.068-.611-2.028-.527-2.595.084L28.605 25l5.274-5.277h.001z" fill="url(#dpaint3_linear)"/><path opacity=".2" d="M33.767 30.165L15.641 40.471c-1.013.583-1.916.542-2.499.012l-.096.097.096.084c.583.527 1.486.57 2.499-.013l18.25-10.374-.124-.112z" fill="#000"/><path opacity=".12" d="M39.985 26.624l-6.234 3.541.113.112 6.105-3.472c.875-.499 1.305-1.154 1.305-1.805-.053.599-.498 1.166-1.29 1.624h.001z" fill="#000"/><path opacity=".25" fill-rule="evenodd" clip-rule="evenodd" d="M15.628 9.53l24.357 13.846c.79.446 1.236 1.029 1.305 1.624 0-.651-.43-1.306-1.305-1.805L15.628 9.35c-1.747-1.001-3.165-.166-3.165 1.832v.181c0-2.001 1.418-2.82 3.165-1.833z" fill="#fff"/><defs><linearGradient id="dpaint0_linear" x1="22.32" y1="10.883" x2="9.044" y2="24.167" gradientUnits="userSpaceOnUse"><stop stop-color="#00a0ff"/><stop offset=".007" stop-color="#00a1ff"/><stop offset=".26" stop-color="#00beff"/><stop offset=".512" stop-color="#00d2ff"/><stop offset=".76" stop-color="#00dfff"/><stop offset="1" stop-color="#00e3ff"/></linearGradient><linearGradient id="dpaint1_linear" x1="42.264" y1="25" x2="12.038" y2="25" gradientUnits="userSpaceOnUse"><stop stop-color="#ffe000"/><stop offset=".409" stop-color="#ffbd00"/><stop offset=".775" stop-color="orange"/><stop offset="1" stop-color="#ff9c00"/></linearGradient><linearGradient id="dpaint2_linear" x1="31.012" y1="29.965" x2="8.345" y2="52.648" gradientUnits="userSpaceOnUse"><stop stop-color="#ff3a44"/><stop offset="1" stop-color="#c31162"/></linearGradient><linearGradient id="dpaint3_linear" x1="9.11" y1="7.017" x2="19.227" y2="17.142" gradientUnits="userSpaceOnUse"><stop stop-color="#32a071"/><stop offset=".069" stop-color="#2da771"/><stop offset=".476" stop-color="#15cf74"/><stop offset=".801" stop-color="#06e775"/><stop offset="1" stop-color="#00f076"/></linearGradient></defs></svg><svg fill="none" viewBox="0 0 40 41" id="linkedin-ico" xmlns="http://www.w3.org/2000/svg"><path stroke="#000" stroke-width="2" d="M1 1.906h38v38H1z"/><g clip-path="url(#eclip0)"><path d="M15.03 28.781h-3.733V18.266h3.733v10.515zm-1.868-11.95c-1.194 0-2.162-.864-2.162-1.908s.968-1.892 2.162-1.892c1.193 0 2.161.848 2.161 1.892s-.968 1.909-2.161 1.909zM29 28.782h-3.725v-5.118c0-1.22-.028-2.785-1.94-2.785-1.94 0-2.238 1.325-2.238 2.697v5.206h-3.729V18.266h3.58V19.7H21c.499-.826 1.716-1.698 3.532-1.698 3.777 0 4.472 2.177 4.472 5.003v5.776H29z" fill="#000"/></g><defs><clipPath id="eclip0"><path fill="#fff" transform="translate(11 11.906)" d="M0 0h18v18H0z"/></clipPath></defs></svg><svg fill="none" viewBox="0 0 39 40" id="logo" xmlns="http://www.w3.org/2000/svg"><path fill-rule="evenodd" clip-rule="evenodd" d="M36.862 11.993a5.613 5.613 0 00-7.174-1.975 5.509 5.509 0 00-2.428 7.412 5.525 5.525 0 003.97 2.936c-.208 6.546-5.695 11.684-12.255 11.477-6.372-.202-11.45-5.384-11.507-11.745a11.686 11.686 0 017.65-10.987 1.87 1.87 0 001.193-2.162l-.014-.059a1.862 1.862 0 011.66-2.264 15.429 15.429 0 013.126.031 1.89 1.89 0 002.095-1.774 1.94 1.94 0 00-1.78-1.985 19.59 19.59 0 00-2.046-.107C8.664.791 0 9.436 0 20.101s8.665 19.31 19.353 19.31c10.688 0 19.352-8.646 19.352-19.31 0-1.888-.38-5.958-1.843-8.108z" fill="currentColor"/></svg><svg fill="none" viewBox="0 0 234 24" id="logo2" xmlns="http://www.w3.org/2000/svg"><g clip-path="url(#gclip0)" fill-rule="evenodd" clip-rule="evenodd" fill="#AAA"><path d="M38.45 15.151c.161.14.249.346.24.56 0 .603-.35.904-1.046.904H31.65a.836.836 0 01-.886-.87c0-.31.128-.604.353-.815l4.948-5.324h-3.83a1.052 1.052 0 01-.7-.205.716.716 0 01-.24-.576c0-.59.348-.887 1.046-.887h5.728a.841.841 0 01.647.257.876.876 0 01.239.613 1.22 1.22 0 01-.354.833l-4.93 5.306h4.078c.25-.017.5.055.701.204zm3.165-3.665h4.043a2.387 2.387 0 00-.461-1.64 1.675 1.675 0 00-1.348-.559c-1.253 0-1.997.733-2.234 2.2zm5.72.985a.71.71 0 01-.524.204h-5.266c-.015.656.222 1.291.663 1.775a2.367 2.367 0 001.73.604c.38.005.76-.046 1.126-.15.352-.109.689-.26 1.002-.454a.93.93 0 01.443-.124.557.557 0 01.47.222.863.863 0 01.168.541c.002.34-.164.66-.443.852a3.994 3.994 0 01-1.268.586 5.837 5.837 0 01-1.64.23 4.917 4.917 0 01-2.323-.523 3.7 3.7 0 01-1.534-1.482 4.462 4.462 0 01-.54-2.237 5.435 5.435 0 01.549-2.474 4.134 4.134 0 011.543-1.704 4.239 4.239 0 012.27-.613 3.584 3.584 0 012.793 1.083 4.438 4.438 0 01.984 3.088.782.782 0 01-.204.576h.001zm9.125-3.957c.545.65.815 1.488.755 2.334 0 .224-.007.396-.02.515l-.354 4.294a1.098 1.098 0 01-.355.78 1.18 1.18 0 01-.815.285 1.087 1.087 0 01-.799-.284.954.954 0 01-.247-.78l.355-4.206c.094-1.314-.426-1.97-1.56-1.97a1.991 1.991 0 00-1.526.585 2.63 2.63 0 00-.638 1.633l-.337 3.957a1.098 1.098 0 01-.355.78 1.18 1.18 0 01-.815.285c-.29.02-.578-.084-.79-.284a1.03 1.03 0 01-.257-.78l.568-6.887a.955.955 0 01.354-.736c.237-.187.533-.284.834-.275.275-.016.543.08.745.266.181.19.26.453.213.71l-.019.337c.302-.43.711-.773 1.189-.994a3.83 3.83 0 011.667-.354 2.901 2.901 0 012.207.79zM21.568 7.48a3.282 3.282 0 00-4.199-1.16 3.239 3.239 0 00.904 6.074 6.956 6.956 0 01-7.171 6.734 6.956 6.956 0 01-6.733-6.892 6.858 6.858 0 014.476-6.448c.518-.187.818-.73.698-1.269l-.008-.033a1.094 1.094 0 01.972-1.329 8.862 8.862 0 011.828.018 1.106 1.106 0 001.227-1.042A1.138 1.138 0 0012.52.97a11.148 11.148 0 00-1.197-.063C5.07.906 0 5.98 0 12.238c0 6.26 5.07 11.331 11.323 11.331 6.254 0 11.323-5.072 11.323-11.33 0-1.109-.223-3.497-1.078-4.759z"/><path d="M15.594 1.766a1.174 1.174 0 010 2.348 1.174 1.174 0 010-2.348zm50.494 9.4a1.174 1.174 0 11-.001 2.346 1.174 1.174 0 01.001-2.347zm14.814-2.76a.676.676 0 01.175.473c0 .245-.09.46-.267.65l-5.017 5.502h4.287c.222 0 .393.056.515.167a.58.58 0 01.183.45c0 .22-.067.39-.2.506-.132.116-.327.174-.581.174h-5.781c-.213 0-.376-.06-.491-.183a.644.644 0 01-.174-.465c0-.22.088-.426.265-.615l5.035-5.553h-4.005c-.222 0-.393-.056-.515-.167a.582.582 0 01-.182-.449c0-.455.255-.68.764-.68h5.5c.21 0 .373.062.49.19h-.001zm3.467 1.438c-.4.4-.655.98-.765 1.746h4.286c.023-.765-.136-1.347-.473-1.746-.338-.4-.817-.598-1.437-.598-.676 0-1.213.2-1.611.598zm4.81 2.535a.641.641 0 01-.475.175h-5.167c.012.82.222 1.455.632 1.905.41.448 1.002.673 1.777.673.775 0 1.495-.222 2.16-.666a.673.673 0 01.366-.116c.155 0 .282.061.381.183.1.122.15.265.15.432 0 .256-.11.471-.331.65-.3.242-.712.442-1.238.597a5.56 5.56 0 01-1.587.233c-.798 0-1.496-.16-2.093-.482a3.368 3.368 0 01-1.388-1.38c-.327-.6-.49-1.29-.49-2.078 0-.877.168-1.655.507-2.337.337-.682.81-1.21 1.42-1.587.609-.377 1.313-.567 2.11-.567 1.108 0 1.958.33 2.55.99.592.66.89 1.616.89 2.868 0 .222-.059.391-.175.507h.001zm7.109-4.198c.128.111.192.272.192.482 0 .51-.277.787-.831.831l-.448.05c-.765.078-1.332.3-1.704.665-.37.366-.583.905-.64 1.614l-.315 3.79c-.022.277-.116.48-.282.607a.981.981 0 01-.615.192c-.244 0-.44-.067-.59-.2-.149-.133-.213-.332-.19-.599l.547-6.8a.712.712 0 01.283-.566 1 1 0 01.614-.198c.222 0 .398.063.532.19.133.128.194.313.183.557l-.05.683c.553-.854 1.429-1.325 2.625-1.414l.184-.016c.21-.022.379.022.505.132zm6.168 6.07c.41-.577.617-1.352.617-2.329 0-.83-.193-1.466-.574-1.904-.382-.437-.929-.656-1.636-.656-.777 0-1.37.288-1.78.864-.408.577-.613 1.353-.613 2.328 0 .843.191 1.48.572 1.913.383.431.933.648 1.653.648.766 0 1.352-.289 1.761-.865zm-3.838 1.712a3.334 3.334 0 01-1.361-1.38c-.322-.6-.482-1.29-.482-2.079 0-.91.169-1.7.507-2.377a3.69 3.69 0 011.428-1.563c.615-.366 1.327-.549 2.135-.549.797 0 1.49.163 2.076.49a3.41 3.41 0 011.363 1.38c.322.593.482 1.29.482 2.087 0 .91-.168 1.7-.506 2.37a3.712 3.712 0 01-1.43 1.554c-.614.366-1.33.55-2.15.55-.787 0-1.474-.162-2.062-.483zm14.405-6.119c-.398.4-.653.98-.764 1.746h4.287c.022-.765-.136-1.347-.474-1.746-.337-.4-.817-.598-1.437-.598-.676 0-1.213.2-1.612.598zm4.81 2.535c-.116.117-.274.175-.474.175h-5.166c.011.82.221 1.455.632 1.905.408.448 1.002.673 1.778.673.775 0 1.493-.222 2.158-.666a.676.676 0 01.366-.116c.155 0 .282.061.383.183a.662.662 0 01.148.432c0 .256-.11.471-.332.65-.299.242-.711.442-1.237.597a5.549 5.549 0 01-1.587.233c-.798 0-1.496-.16-2.093-.482a3.36 3.36 0 01-1.387-1.38c-.327-.6-.49-1.29-.49-2.078 0-.877.168-1.655.506-2.337a3.818 3.818 0 011.42-1.587c.61-.377 1.313-.567 2.11-.567 1.107 0 1.959.33 2.551.99.592.66.888 1.616.888 2.868 0 .222-.057.391-.174.507zm4.973-5.96c-.283.31-.452.77-.507 1.38l-.034.416h1.646c.222 0 .39.055.506.166a.59.59 0 01.175.448c0 .455-.255.682-.764.682h-1.662l-.482 6.102c-.011.267-.102.466-.273.6a.971.971 0 01-.607.2.87.87 0 01-.582-.2c-.155-.134-.227-.333-.215-.6l.481-6.102h-.98c-.221 0-.393-.055-.515-.166a.573.573 0 01-.183-.449c0-.22.066-.39.2-.507.132-.117.326-.174.58-.174h.999l.016-.217c.177-2.127 1.323-3.258 3.438-3.39l.35-.018c.586-.033.88.161.88.582 0 .21-.06.372-.183.482-.122.111-.299.177-.53.2l-.45.032c-.587.045-1.022.223-1.304.533zm6.415 0c-.283.31-.452.77-.508 1.38l-.033.416h1.645c.223 0 .391.055.507.166.116.11.174.26.174.448 0 .455-.255.682-.763.682h-1.662l-.482 6.102c-.011.267-.102.466-.274.6a.97.97 0 01-.607.2.867.867 0 01-.581-.2c-.155-.134-.227-.333-.216-.6l.482-6.102h-.98c-.221 0-.394-.055-.515-.166a.573.573 0 01-.184-.449c0-.22.067-.39.2-.507.132-.117.327-.174.582-.174h.997l.017-.217c.177-2.127 1.323-3.258 3.438-3.39l.349-.018c.587-.033.88.161.88.582 0 .21-.06.372-.182.482-.123.111-.3.177-.531.2l-.45.032c-.586.045-1.02.223-1.303.533zm7.849 7.831c.41-.576.615-1.35.615-2.328 0-.83-.19-1.466-.573-1.904-.382-.437-.928-.656-1.636-.656-.777 0-1.368.288-1.779.864-.41.577-.613 1.353-.613 2.328 0 .843.19 1.48.572 1.913.383.431.933.648 1.653.648.765 0 1.35-.289 1.761-.865zm-3.838 1.713a3.336 3.336 0 01-1.362-1.38c-.32-.6-.482-1.29-.482-2.079 0-.91.17-1.7.507-2.377a3.681 3.681 0 011.43-1.563c.613-.366 1.326-.549 2.133-.549.798 0 1.49.163 2.077.49.588.328 1.04.788 1.363 1.38.321.593.482 1.29.482 2.087 0 .91-.17 1.7-.507 2.37a3.699 3.699 0 01-1.43 1.554c-.613.366-1.33.55-2.15.55-.787 0-1.473-.162-2.06-.483h-.001zm13.085-7.782c.128.111.192.272.192.482 0 .51-.278.787-.83.831l-.45.05c-.763.078-1.331.3-1.703.665-.37.366-.583.905-.639 1.614l-.316 3.79c-.022.277-.116.48-.281.607a.983.983 0 01-.615.192c-.245 0-.44-.067-.592-.2-.148-.133-.212-.332-.189-.599l.548-6.8a.709.709 0 01.283-.566.995.995 0 01.613-.198c.222 0 .399.063.533.19.132.128.194.313.181.557l-.049.683c.553-.854 1.428-1.325 2.626-1.414l.182-.016c.21-.022.38.022.506.132zm3.823 5.138a2.005 2.005 0 00-.016.3c0 .498.113.877.341 1.138.226.261.545.39.955.39.133 0 .265-.008.397-.023.134-.018.24-.025.317-.025.132 0 .239.052.316.157.077.106.116.252.116.44 0 .278-.107.472-.324.583-.216.11-.596.166-1.138.166-.842 0-1.496-.233-1.961-.698-.465-.467-.698-1.12-.698-1.963 0-.177.006-.315.018-.416l.299-3.856h-.981c-.222 0-.393-.056-.515-.167-.122-.11-.183-.266-.183-.466 0-.21.067-.373.2-.49.133-.116.326-.175.58-.175h.998l.132-1.729a.83.83 0 01.284-.566.908.908 0 01.615-.215c.254 0 .452.072.597.215.145.146.204.34.183.583l-.134 1.712h1.646c.21 0 .376.056.5.166.12.111.18.26.18.45 0 .455-.254.682-.763.682h-1.662l-.299 3.807zm14.795-4.589c.47.477.706 1.18.706 2.112 0 .222-.005.388-.017.5l-.332 4.271c-.023.255-.114.452-.274.591-.16.138-.367.208-.623.208-.254 0-.454-.07-.598-.208-.144-.139-.205-.336-.183-.59l.334-4.19c.009-.078.015-.194.015-.35 0-1.13-.542-1.696-1.627-1.696-.688 0-1.233.205-1.637.615-.405.41-.634.982-.69 1.713l-.316 3.907c-.022.255-.113.452-.273.591a.93.93 0 01-.624.208c-.254 0-.452-.07-.59-.208-.138-.139-.202-.336-.19-.59l.548-6.8a.716.716 0 01.283-.558.99.99 0 01.63-.208c.232 0 .416.067.549.2.133.133.193.316.183.548l-.05.582c.277-.432.65-.767 1.122-1.005.47-.239 1-.358 1.586-.358.908 0 1.598.238 2.068.715zm8.035 5.52c.411-.576.616-1.35.616-2.328 0-.83-.192-1.466-.574-1.904-.38-.437-.928-.656-1.636-.656-.776 0-1.368.288-1.779.864-.408.577-.614 1.353-.614 2.328 0 .843.191 1.48.573 1.913.383.431.934.648 1.653.648.765 0 1.352-.289 1.762-.865h-.001zm-3.837 1.713a3.339 3.339 0 01-1.363-1.38c-.32-.6-.48-1.29-.48-2.079 0-.91.168-1.7.505-2.377a3.694 3.694 0 011.43-1.563c.615-.366 1.326-.549 2.135-.549.797 0 1.49.163 2.075.49a3.41 3.41 0 011.363 1.38c.322.593.482 1.29.482 2.087 0 .91-.168 1.7-.506 2.37a3.705 3.705 0 01-1.43 1.554c-.614.366-1.331.55-2.151.55-.786 0-1.473-.162-2.06-.483zm14.571-7.233c.47.477.706 1.18.706 2.112 0 .222-.006.388-.017.5l-.332 4.271c-.023.255-.115.452-.274.591-.16.138-.369.208-.624.208-.254 0-.453-.07-.598-.208-.144-.139-.204-.336-.183-.59l.333-4.19a2.94 2.94 0 00.016-.35c0-1.13-.542-1.696-1.627-1.696-.687 0-1.232.205-1.637.615-.405.41-.633.982-.69 1.713l-.315 3.907c-.022.255-.114.452-.274.591-.16.138-.369.208-.624.208s-.451-.07-.589-.208c-.139-.139-.203-.336-.191-.59l.547-6.8a.725.725 0 01.283-.558.994.994 0 01.631-.208c.233 0 .416.067.55.2.133.133.193.316.182.548l-.05.582a2.81 2.81 0 011.121-1.005c.47-.239 1-.358 1.587-.358.908 0 1.598.238 2.069.715zm8.461 5.554c.415-.555.622-1.32.622-2.295 0-.842-.194-1.49-.581-1.946-.388-.454-.94-.68-1.661-.68-.73 0-1.307.28-1.728.838-.42.56-.631 1.323-.631 2.286 0 .855.194 1.506.582 1.954.387.45.94.674 1.66.674.743 0 1.322-.277 1.737-.83zm.681-5.787c.526.322.933.78 1.22 1.372.29.593.433 1.283.433 2.07 0 .887-.161 1.671-.482 2.353-.32.682-.773 1.212-1.354 1.588-.582.376-1.25.564-2.001.564-.631 0-1.178-.132-1.637-.398a2.635 2.635 0 01-1.055-1.13l-.05.697c-.011.255-.099.452-.266.591a.931.931 0 01-.614.208c-.245 0-.438-.07-.582-.208-.145-.139-.21-.336-.2-.59l.831-10.326a.74.74 0 01.283-.565.97.97 0 01.631-.217c.243 0 .435.067.572.2.14.133.203.316.193.55l-.333 4.072c.276-.41.645-.73 1.105-.964.46-.233.96-.349 1.503-.349.676 0 1.276.161 1.803.482zm7.614 6.086c.399-.41.625-.937.68-1.58l.035-.465h-.466c-.82 0-1.462.044-1.927.133-.466.088-.797.233-.997.431-.2.2-.3.478-.3.832 0 .388.136.696.408.923.272.227.64.34 1.105.34.575 0 1.063-.204 1.463-.614h-.001zm2.443-3.708c0 .21-.006.372-.018.482l-.33 4.29c-.013.244-.093.432-.243.566-.15.132-.346.2-.59.2-.243 0-.437-.076-.581-.226a.693.693 0 01-.182-.574l.032-.565c-.232.455-.552.8-.963 1.04-.41.237-.887.357-1.428.357-.81 0-1.477-.219-2.002-.657-.527-.438-.789-1-.789-1.687 0-.62.159-1.112.482-1.472.32-.36.832-.623 1.536-.79.703-.166 1.648-.25 2.832-.25h.599l.033-.415c.044-.632-.068-1.094-.332-1.388-.265-.294-.698-.44-1.296-.44-.732 0-1.54.244-2.426.731a.676.676 0 01-.332.083.541.541 0 01-.416-.183.625.625 0 01-.166-.432c0-.266.139-.488.416-.665a4.995 4.995 0 011.42-.633 6.109 6.109 0 011.67-.232c2.048 0 3.074.954 3.074 2.86zm8.777-2.145c.47.477.706 1.18.706 2.112 0 .222-.006.388-.017.5l-.332 4.271c-.023.255-.114.452-.275.591-.16.138-.367.208-.623.208-.254 0-.454-.07-.597-.208-.145-.139-.206-.336-.184-.59l.333-4.19a2.94 2.94 0 00.016-.35c0-1.13-.542-1.696-1.628-1.696-.686 0-1.232.205-1.637.615-.403.41-.634.982-.689 1.713l-.315 3.907c-.022.255-.113.452-.274.591a.926.926 0 01-.623.208c-.255 0-.452-.07-.59-.208-.138-.139-.203-.336-.191-.59l.548-6.8a.715.715 0 01.282-.558.994.994 0 01.631-.208c.233 0 .416.067.549.2.133.133.193.316.184.548l-.05.582a2.8 2.8 0 011.12-1.005c.471-.239 1-.358 1.588-.358.908 0 1.597.238 2.068.715zm9.333 6.418c.133.132.2.293.2.482 0 .2-.087.382-.258.55a.805.805 0 01-.573.25.707.707 0 01-.532-.25l-3.672-3.643-.25 3.093c-.022.256-.116.45-.281.582a.92.92 0 01-.598.2.838.838 0 01-.598-.217c-.156-.144-.222-.343-.2-.598l.815-10.292c.01-.255.104-.449.28-.583.178-.132.383-.2.616-.2.244 0 .438.07.582.21.143.138.211.34.198.606l-.513 6.5 3.92-3.508a.735.735 0 01.532-.232c.2 0 .373.075.524.225a.7.7 0 01.223.507.713.713 0 01-.249.532l-3.157 2.777 2.991 3.01zM233.78 4.651c.092.092.13.218.114.38l-.31 3.898c-.023.352-.191.53-.506.53-.145 0-.256-.045-.332-.133-.076-.089-.109-.22-.092-.397l.194-2.484-1.136 1.92a.906.906 0 01-.23.265.478.478 0 01-.277.08.375.375 0 01-.246-.08.69.69 0 01-.178-.265l-.851-1.85-.195 2.414c-.008.177-.058.308-.15.397a.508.508 0 01-.367.132c-.146 0-.257-.044-.334-.132-.076-.089-.11-.22-.102-.397l.31-3.899a.558.558 0 01.178-.38.528.528 0 01.361-.137c.2 0 .352.12.46.356l1.195 2.691 1.62-2.69c.146-.238.323-.357.53-.357.137 0 .251.046.343.138h.001zm-5.287.322c0 .307-.18.46-.539.46h-1.126l-.277 3.507a.494.494 0 01-.177.38.602.602 0 01-.397.138.516.516 0 01-.373-.138.468.468 0 01-.132-.38l.286-3.507h-1.113c-.315 0-.471-.138-.471-.414 0-.307.175-.46.528-.46h3.32c.315 0 .471.138.471.414z"/></g><defs><clipPath id="gclip0"><path fill="#fff" transform="translate(0 .906)" d="M0 0h234v23H0z"/></clipPath></defs></svg><svg fill="none" viewBox="0 0 57 36" id="mastercard-logo" xmlns="http://www.w3.org/2000/svg"><path fill-rule="evenodd" clip-rule="evenodd" d="M21.062 31.972h15.303V4.633H21.062v27.34z" fill="#EA5C0F"/><path fill-rule="evenodd" clip-rule="evenodd" d="M22.033 18.303c0-5.546 2.612-10.485 6.68-13.669A17.48 17.48 0 0017.904.917C8.246.917.416 8.7.416 18.303S8.246 35.69 17.904 35.69c4.08 0 7.834-1.389 10.81-3.718-4.069-3.184-6.68-8.123-6.68-13.669z" fill="#DD0C17"/><path fill-rule="evenodd" clip-rule="evenodd" d="M57.01 18.303c0 9.602-7.829 17.387-17.488 17.387-4.08 0-7.833-1.389-10.808-3.718 4.067-3.184 6.68-8.123 6.68-13.669 0-5.546-2.613-10.485-6.68-13.669A17.478 17.478 0 0139.522.917c9.66 0 17.489 7.784 17.489 17.386z" fill="#F79E1B"/><path fill-rule="evenodd" clip-rule="evenodd" d="M56.465 29.235v-.833h-.177l-.204.573-.204-.573h-.178v.833h.126v-.628l.19.542h.13l.192-.543v.63h.125zm-1.123 0v-.691h.227v-.14h-.578v.14h.227v.691h.124z" fill="#F69F00"/></svg><svg fill="none" viewBox="0 0 176 60" id="pci-logo" xmlns="http://www.w3.org/2000/svg"><g clip-path="url(#iclip0)"><path fill-rule="evenodd" clip-rule="evenodd" d="M71.775.906l16.747 37.31-68.619 21.076L0 4.963 71.775.906zM45.018 20.362c-4.466 2.188-6.765 5.958-6.406 11.016.352 4.975 3.136 8.163 7.766 9.845 3.73 1.354 7.558 1.538 11.439.986 1.05-.15 2.079-.435 3.066-.68l.587-.143v-5.378c-2.698.258-5.149.775-7.571.66-3.519-.169-5.834-2.64-6.009-5.817-.253-4.61 3.229-7.417 8.34-6.614 1.355.212 2.674.655 4.068 1.053l.602.166v-6.019c-5.493-1.584-10.821-1.555-15.882.925zm58.097 13.278c.45 0 .88.062 1.293.186.41.124.772.376 1.082.756l-.907.827a1.514 1.514 0 00-.594-.524 1.884 1.884 0 00-.874-.198c-.31 0-.568.04-.773.122a1.4 1.4 0 00-.495.315 1.11 1.11 0 00-.262.413 1.256 1.256 0 00-.075.408c0 .35.099.617.302.803.202.186.452.338.75.454.299.117.625.22.979.314.353.094.679.224.977.39.299.168.55.393.75.676.204.283.304.673.304 1.17 0 .396-.076.753-.226 1.07a2.394 2.394 0 01-.612.804 2.67 2.67 0 01-.908.5c-.35.118-.723.176-1.117.176-.53 0-1.03-.094-1.502-.28a2.459 2.459 0 01-1.13-.86l.92-.793c.202.303.46.526.774.67.315.143.639.215.972.215.187 0 .376-.03.57-.088.195-.058.37-.145.53-.26.159-.118.29-.262.39-.432.1-.17.152-.37.152-.594 0-.318-.102-.56-.303-.728a2.655 2.655 0 00-.751-.42c-.3-.11-.624-.22-.978-.325a3.946 3.946 0 01-.978-.436 2.36 2.36 0 01-.75-.75c-.203-.316-.303-.74-.303-1.276 0-.24.052-.497.156-.768.106-.272.27-.52.496-.746.225-.225.514-.413.867-.564.352-.152.778-.227 1.274-.227zm59.425 2.794c.489 0 .902.086 1.239.256.338.17.615.394.833.67.218.275.374.586.472.931.096.345.145.697.145 1.054v.372h-4.425c0 .24.053.46.159.658.103.198.242.367.412.506.172.14.369.25.593.327.226.077.459.116.7.116.326 0 .609-.076.849-.227.24-.152.462-.35.664-.6l.79.606c-.581.753-1.395 1.13-2.443 1.13-.435 0-.83-.075-1.182-.222a2.573 2.573 0 01-.896-.61 2.724 2.724 0 01-.566-.92 3.294 3.294 0 01-.197-1.148c0-.41.072-.793.215-1.147.145-.353.342-.66.594-.92.252-.26.553-.463.902-.61.35-.148.73-.222 1.142-.222zm-12.294 0c.488 0 .902.086 1.239.256.338.17.615.394.833.67.217.275.374.586.47.931.098.345.147.697.147 1.054v.372h-4.425c0 .24.052.46.158.658.104.198.242.367.413.506.17.14.368.25.593.327.226.077.458.116.699.116.326 0 .609-.076.85-.227.24-.152.462-.35.663-.6l.792.606c-.582.753-1.397 1.13-2.444 1.13a3.04 3.04 0 01-1.182-.222 2.573 2.573 0 01-.896-.61 2.708 2.708 0 01-.566-.92 3.27 3.27 0 01-.198-1.148c0-.41.072-.793.216-1.147.144-.353.34-.66.594-.92.252-.26.553-.463.902-.61.349-.148.73-.222 1.142-.222zm-15.754 0c.489 0 .902.086 1.24.256.338.17.615.394.832.67.218.275.375.586.473.931.095.345.144.697.144 1.054v.372h-4.424c0 .24.053.46.158.658.104.198.242.367.413.506.17.14.369.25.593.327.225.077.458.116.7.116.326 0 .609-.076.849-.227.24-.152.46-.35.664-.6l.79.606c-.581.753-1.395 1.13-2.444 1.13a3.05 3.05 0 01-1.182-.222 2.573 2.573 0 01-1.461-1.53 3.27 3.27 0 01-.197-1.148c0-.41.07-.793.215-1.147.144-.353.342-.66.594-.92.252-.26.552-.463.902-.61.35-.148.73-.222 1.14-.222h.001zm-5.518.011c.403 0 .79.072 1.158.216.37.143.69.362.961.657l-.792.722a2.202 2.202 0 00-.61-.46 1.736 1.736 0 00-.764-.157c-.287 0-.537.053-.75.157-.215.105-.393.25-.537.431a1.922 1.922 0 00-.325.63c-.075.235-.11.482-.11.738s.041.5.126.728c.086.23.206.43.362.6.155.17.341.304.558.401.218.097.463.145.735.145.294 0 .546-.052.755-.157a1.9 1.9 0 00.582-.46l.747.745a2.344 2.344 0 01-.95.653 3.33 3.33 0 01-1.146.197 3.14 3.14 0 01-1.17-.209 2.702 2.702 0 01-.914-.588 2.589 2.589 0 01-.594-.908 3.147 3.147 0 01-.21-1.17c0-.427.07-.819.21-1.176.14-.357.336-.664.588-.92.252-.256.555-.456.908-.599a3.1 3.1 0 011.182-.216zm-19.49-.01c.488 0 .902.085 1.24.255.338.17.615.394.832.67.217.275.375.586.472.931.096.345.145.697.145 1.054v.372h-4.424c0 .24.052.46.157.658.105.198.242.367.414.506.17.14.368.25.593.327.225.077.457.116.7.116.325 0 .608-.076.85-.227.24-.152.46-.35.662-.6l.792.606c-.582.753-1.397 1.13-2.445 1.13-.436 0-.828-.075-1.182-.222a2.573 2.573 0 01-1.461-1.53 3.248 3.248 0 01-.198-1.148c0-.41.071-.793.216-1.147.143-.353.341-.66.594-.92.252-.26.552-.463.902-.61.35-.148.73-.222 1.141-.222zM15.831 19.161l-1.657.004V42.16h8.665v-6.832l1.57-.058c2.025-.08 3.773-.197 5.23-.643 2.106-.646 3.538-1.469 5.126-2.896 3.593-3.232 2.703-8.823-1.564-11.08-1.391-.735-3.014-1.36-4.555-1.419-2.628-.1-5.26-.11-7.937-.098l-4.878.028zM154.74 36.573l1.653 4.226 1.584-4.226h1.117l-2.166 5.52h-1.152l-2.247-5.52H154.74zm-36.453 0l1.653 4.226 1.584-4.226h1.117l-2.166 5.52h-1.152l-2.247-5.52H118.287zm-2.13-.14c.17 0 .326.023.464.07l-.046 1.13a2.87 2.87 0 00-.256-.059 1.468 1.468 0 00-.256-.023c-.512 0-.904.144-1.176.431-.27.287-.408.733-.408 1.34v2.77h-1.047v-5.519h1.047v.85h.023c.071-.147.164-.282.28-.402.117-.12.247-.223.39-.308a2.022 2.022 0 01.985-.28zm51.459-3.143v8.802h-1.047V33.29h1.047zm-24.554.56v7.194h3.784v1.048h-4.902V33.85h1.118zm-18.372 2.723v5.52h-1.048v-5.52h1.048zm51.298-2.724v8.243h-1.118V35.13l-1.514 1.397-.651-.78 2.294-1.898h.989zM74.145 19.015h-8.799v22.99h8.799v-22.99zm35.315 18.257a1.713 1.713 0 00-1.59 1.043c-.08.19-.12.377-.12.564h3.306a2.248 2.248 0 00-.11-.64 1.36 1.36 0 00-.792-.844c-.2-.082-.43-.123-.694-.123zm53.056 0a1.706 1.706 0 00-1.589 1.043 1.407 1.407 0 00-.123.564h3.307a2.248 2.248 0 00-.11-.64 1.355 1.355 0 00-.792-.844 1.805 1.805 0 00-.693-.123zm-12.294 0a1.718 1.718 0 00-1.59 1.043 1.406 1.406 0 00-.122.564h3.307a2.248 2.248 0 00-.11-.64 1.444 1.444 0 00-.297-.507 1.363 1.363 0 00-.495-.337c-.2-.082-.43-.123-.693-.123zm-15.754 0a1.718 1.718 0 00-1.589 1.043 1.423 1.423 0 00-.122.564h3.307a2.213 2.213 0 00-.111-.64 1.35 1.35 0 00-.791-.844c-.2-.082-.43-.123-.694-.123zm-10.302-3.446c.208 0 .389.076.541.227a.738.738 0 01.226.541.74.74 0 01-.226.541.74.74 0 01-.541.228.738.738 0 01-.542-.228.736.736 0 01-.227-.54c0-.21.075-.39.227-.542a.74.74 0 01.542-.227zM27.725 25.22c.54.746.605 2.358.16 3.192-.856 1.607-2.441 1.706-4.152 1.69l-.828-.012v-6.066c1.88-.36 3.713-.333 4.82 1.196zm90.491-6.433c.45 0 .881.062 1.292.186.411.124.773.376 1.083.756l-.908.827a1.514 1.514 0 00-.594-.524 1.878 1.878 0 00-.873-.198c-.31 0-.568.041-.774.122-.206.082-.37.187-.495.315-.124.128-.21.266-.262.413-.05.148-.076.284-.076.408 0 .35.101.617.302.803.203.186.453.338.752.454.298.117.624.221.978.314a4.2 4.2 0 01.977.391c.3.167.55.392.751.675.203.283.303.673.303 1.17 0 .396-.075.753-.227 1.071-.15.318-.355.586-.61.803-.258.218-.56.385-.909.501a3.5 3.5 0 01-1.118.175 4.077 4.077 0 01-1.502-.28 2.472 2.472 0 01-1.129-.86l.92-.793c.201.303.46.526.773.67.315.143.64.215.973.215a1.942 1.942 0 001.1-.348c.16-.118.29-.262.39-.432.102-.17.152-.369.152-.594 0-.318-.1-.56-.303-.728a2.654 2.654 0 00-.75-.419c-.3-.112-.626-.22-.98-.326a3.972 3.972 0 01-.977-.436 2.387 2.387 0 01-.75-.75c-.202-.316-.304-.74-.304-1.276 0-.24.053-.497.157-.768.105-.272.271-.52.496-.746a2.7 2.7 0 01.867-.564c.353-.152.778-.227 1.275-.227zm-6.473 0c.45 0 .88.062 1.291.186.412.124.773.376 1.084.756l-.907.827a1.521 1.521 0 00-.594-.524 1.891 1.891 0 00-.874-.198c-.31 0-.569.041-.774.122a1.384 1.384 0 00-.494.315 1.097 1.097 0 00-.262.413 1.259 1.259 0 00-.076.408c0 .35.1.617.302.803.202.186.452.338.75.454.299.117.625.221.979.314a4.2 4.2 0 01.977.391c.3.167.55.392.75.675.205.283.303.673.303 1.17 0 .396-.074.753-.225 1.071a2.398 2.398 0 01-.612.803 2.7 2.7 0 01-.909.501 3.49 3.49 0 01-1.117.175 4.068 4.068 0 01-1.501-.28 2.47 2.47 0 01-1.13-.86l.92-.793c.202.303.46.526.773.67.316.143.64.215.974.215a1.952 1.952 0 001.1-.348c.158-.118.288-.262.39-.432.1-.17.15-.369.15-.594 0-.318-.1-.56-.302-.728a2.654 2.654 0 00-.75-.419c-.3-.112-.626-.22-.98-.326a3.979 3.979 0 01-.978-.436 2.387 2.387 0 01-.75-.75c-.202-.316-.303-.74-.303-1.276 0-.24.053-.497.157-.768.105-.272.27-.52.496-.746.225-.225.514-.413.868-.564.352-.152.777-.227 1.274-.227zm17.603 0c.544 0 1.077.105 1.601.315.524.21.953.53 1.287.966l-.932.71a2.288 2.288 0 00-.885-.698 2.636 2.636 0 00-1.105-.245c-.467 0-.888.088-1.264.262a2.907 2.907 0 00-.967.716 3.307 3.307 0 00-.623 1.066c-.146.407-.22.843-.22 1.31 0 .434.07.845.21 1.234.14.388.34.73.604 1.024.264.295.586.528.967.7.381.17.81.255 1.293.255.472 0 .888-.097 1.245-.29a2.68 2.68 0 00.908-.816l.942.71-.096.12a5.08 5.08 0 01-.229.247c-.155.16-.36.318-.617.477a4.392 4.392 0 01-.926.42c-.36.12-.778.18-1.25.18-.653 0-1.24-.125-1.764-.373a4.26 4.26 0 01-1.34-.978 4.268 4.268 0 01-.844-1.368 4.295 4.295 0 01-.29-1.543c0-.636.104-1.224.314-1.764a4.13 4.13 0 01.878-1.397c.377-.392.83-.696 1.357-.914a4.55 4.55 0 011.746-.326zm16.382 1.385v1.55h1.502v.907h-1.502v2.503c0 .155.004.31.012.46.007.151.036.287.087.408.049.12.128.217.233.291.104.073.258.11.459.11.124 0 .252-.012.385-.035.131-.023.252-.066.36-.128v.955c-.124.07-.285.118-.483.145a3.653 3.653 0 01-.459.041c-.404 0-.717-.056-.938-.169a1.152 1.152 0 01-.489-.436 1.422 1.422 0 01-.186-.6 7.41 7.41 0 01-.03-.67v-2.875h-1.211v-.908h1.211v-1.549h1.049zm24.32-1.734v8.801H169v-.79h-.022a2.007 2.007 0 01-.833.685 2.575 2.575 0 01-1.089.245c-.427 0-.812-.074-1.158-.22a2.572 2.572 0 01-.885-.618 2.774 2.774 0 01-.564-.92 3.176 3.176 0 01-.199-1.14c0-.412.066-.794.199-1.148a2.598 2.598 0 011.449-1.531 2.93 2.93 0 011.158-.22c.397 0 .769.083 1.118.25.349.166.616.393.804.68H169v-4.074h1.048zm-9.476 3.143c.488 0 .902.086 1.24.256.338.171.615.394.832.67.217.275.375.586.472.931.096.345.145.697.145 1.054v.372h-4.424c0 .241.052.46.157.658.105.198.242.367.414.506.17.14.368.25.593.327.225.077.457.116.699.116.326 0 .609-.076.85-.227.24-.152.461-.35.663-.6l.792.606c-.582.753-1.397 1.13-2.445 1.13-.436 0-.828-.075-1.182-.222a2.572 2.572 0 01-1.461-1.53 3.257 3.257 0 01-.198-1.148c0-.41.071-.793.216-1.147a2.81 2.81 0 01.594-.919c.252-.26.552-.464.902-.612.349-.147.729-.22 1.141-.22zm-24.555 0c.49 0 .902.086 1.24.256.338.171.615.394.832.67.218.275.375.586.473.931.095.345.144.697.144 1.054v.372h-4.424c0 .241.053.46.158.658.104.198.242.367.413.506.171.14.37.25.593.327.225.077.458.116.7.116.326 0 .61-.076.85-.227.24-.152.46-.35.663-.6l.791.606c-.582.753-1.396 1.13-2.445 1.13a3.05 3.05 0 01-1.182-.222 2.572 2.572 0 01-.896-.61 2.733 2.733 0 01-.565-.92 3.303 3.303 0 01-.197-1.148c0-.41.071-.793.215-1.147.144-.353.342-.66.594-.919.252-.26.552-.464.902-.612.35-.147.73-.22 1.141-.22zm-32.576-2.584c.582 0 1.093.066 1.531.198.44.132.818.308 1.141.53.322.22.59.475.803.762.214.288.382.582.507.885.124.302.213.605.268.908a4.193 4.193 0 01-.208 2.37c-.196.492-.484.93-.863 1.315a4.24 4.24 0 01-1.416.926c-.562.233-1.212.35-1.949.35h-2.689v-8.244h2.875zm50.227-.699c.117 0 .239.004.367.011.128.008.266.031.413.07l-.116.932a1.527 1.527 0 00-.594-.105c-.194 0-.35.03-.466.087a.663.663 0 00-.273.251.94.94 0 00-.128.39c-.02.151-.03.324-.03.518v1.27h1.247v.907h-1.258v4.61h-1.048v-4.61h-1.187v-.908h1.187v-1.234c0-.737.142-1.286.425-1.647.283-.36.77-.54 1.46-.54l.001-.002zm2.713 3.423v5.52h-1.049v-5.52h1.049zm-6.672 0v5.52h-1.047v-5.52h1.047zm-7.02-.14c.17 0 .326.023.465.07l-.046 1.13a3.274 3.274 0 00-.256-.06 1.573 1.573 0 00-.257-.022c-.512 0-.904.144-1.176.43-.27.288-.407.734-.407 1.34v2.77h-1.048V21.72h1.048v.85h.023c.07-.147.163-.282.28-.402.116-.12.247-.223.39-.308a2.004 2.004 0 01.984-.28zm24.496.978c-.28 0-.532.05-.758.146a1.7 1.7 0 00-.57.395c-.155.167-.276.37-.361.606a2.277 2.277 0 00-.127.774c0 .28.042.538.127.775.085.236.206.438.361.604.155.167.346.3.57.396.226.098.478.146.758.146.279 0 .531-.048.756-.146a1.652 1.652 0 00.931-1c.086-.237.128-.496.128-.775s-.042-.537-.128-.774a1.73 1.73 0 00-.361-.606 1.677 1.677 0 00-.57-.395 1.891 1.891 0 00-.756-.146zm-63.825-2.514h-1.677v6.147h1.41c.473 0 .92-.064 1.344-.192.423-.128.793-.32 1.111-.577a2.74 2.74 0 00.758-.96c.186-.384.28-.833.28-1.345 0-.263-.044-.572-.13-.925a2.774 2.774 0 00-.482-1.007c-.237-.32-.564-.588-.984-.81-.419-.22-.963-.33-1.63-.33zm57.188 2.374a1.704 1.704 0 00-1.246.524 1.764 1.764 0 00-.344.52 1.414 1.414 0 00-.121.563h3.307a2.213 2.213 0 00-.111-.64 1.428 1.428 0 00-.297-.507 1.359 1.359 0 00-.494-.337c-.2-.082-.43-.123-.694-.123zm-24.555 0a1.699 1.699 0 00-1.244.524 1.73 1.73 0 00-.345.52c-.08.188-.122.376-.122.563h3.307a2.248 2.248 0 00-.11-.64 1.415 1.415 0 00-.298-.507 1.342 1.342 0 00-.494-.337 1.809 1.809 0 00-.694-.123zm13.192-3.446c.21 0 .391.076.541.227a.739.739 0 01.228.541c0 .21-.076.391-.228.542a.737.737 0 01-.541.227.74.74 0 01-.541-.227.74.74 0 01-.227-.542c0-.209.076-.389.227-.54a.74.74 0 01.541-.228zm6.671 0c.21 0 .39.076.542.227.15.152.226.332.226.541 0 .21-.076.391-.226.542a.742.742 0 01-.542.227.738.738 0 01-.541-.227.741.741 0 01-.228-.542c0-.209.077-.389.228-.54a.739.739 0 01.541-.228zM69.667 6.45c-3.262-.008-5.369 1.952-5.392 5.02-.025 3.06 2.099 5.086 5.333 5.094 3.292.007 5.368-1.936 5.375-5.032.007-3.093-2.065-5.073-5.316-5.082z" fill="#AAA"/></g><defs><clipPath id="iclip0"><path fill="#fff" transform="translate(0 .906)" d="M0 0h176v59H0z"/></clipPath></defs></svg></defs></svg>