<?xml version="1.0" encoding="utf-8"?><svg viewBox="0 0 57 40" xmlns="http://www.w3.org/2000/svg" xmlns:xlink="http://www.w3.org/1999/xlink"><style>:root>svg{display:none}:root>svg:target{display:block}</style><svg fill="none" viewBox="0 0 39 40" id="logo" xmlns="http://www.w3.org/2000/svg"><path fill-rule="evenodd" clip-rule="evenodd" d="M36.862 11.993a5.613 5.613 0 00-7.174-1.975 5.509 5.509 0 00-2.428 7.412 5.525 5.525 0 003.97 2.936c-.208 6.546-5.695 11.684-12.255 11.477-6.372-.202-11.45-5.384-11.507-11.745a11.686 11.686 0 017.65-10.987 1.87 1.87 0 001.193-2.162l-.014-.059a1.862 1.862 0 011.66-2.264 15.429 15.429 0 013.126.031 1.89 1.89 0 002.095-1.774 1.94 1.94 0 00-1.78-1.985 19.59 19.59 0 00-2.046-.107C8.664.791 0 9.436 0 20.101s8.665 19.31 19.353 19.31c10.688 0 19.352-8.646 19.352-19.31 0-1.888-.38-5.958-1.843-8.108z" fill="#222"/></svg><svg fill="none" viewBox="0 0 57 36" id="mastercard-logo" xmlns="http://www.w3.org/2000/svg"><path fill-rule="evenodd" clip-rule="evenodd" d="M21.062 31.972h15.303V4.633H21.062v27.34z" fill="#EA5C0F"/><path fill-rule="evenodd" clip-rule="evenodd" d="M22.033 18.303c0-5.546 2.612-10.485 6.68-13.669A17.48 17.48 0 0017.904.917C8.246.917.416 8.7.416 18.303S8.246 35.69 17.904 35.69c4.08 0 7.834-1.389 10.81-3.718-4.069-3.184-6.68-8.123-6.68-13.669z" fill="#DD0C17"/><path fill-rule="evenodd" clip-rule="evenodd" d="M57.01 18.303c0 9.602-7.829 17.387-17.488 17.387-4.08 0-7.833-1.389-10.808-3.718 4.067-3.184 6.68-8.123 6.68-13.669 0-5.546-2.613-10.485-6.68-13.669A17.478 17.478 0 0139.522.917c9.66 0 17.489 7.784 17.489 17.386z" fill="#F79E1B"/><path fill-rule="evenodd" clip-rule="evenodd" d="M56.465 29.235v-.833h-.177l-.204.573-.204-.573h-.178v.833h.126v-.628l.19.542h.13l.192-.543v.63h.125zm-1.123 0v-.691h.227v-.14h-.578v.14h.227v.691h.124z" fill="#F69F00"/></svg></svg>