<?xml version="1.0" encoding="utf-8"?><svg viewBox="0 0 170 50" xmlns="http://www.w3.org/2000/svg" xmlns:xlink="http://www.w3.org/1999/xlink"><style>:root>svg{display:none}:root>svg:target{display:block}</style><svg viewBox="0 0 68 28" fill="none" id="applepay-ico" xmlns="http://www.w3.org/2000/svg">
<path fill-rule="evenodd" clip-rule="evenodd" d="M12.59 3.57188C13.35 2.61188 13.866 1.32188 13.73 0.00488281C12.616 0.0598828 11.257 0.745884 10.47 1.70688C9.764 2.52988 9.139 3.87388 9.302 5.13588C10.552 5.24588 11.801 4.50588 12.589 3.57188H12.59ZM13.715 5.38288C11.9 5.27288 10.356 6.42288 9.489 6.42288C8.622 6.42288 7.295 5.43788 5.859 5.46388C3.989 5.49188 2.255 6.55788 1.307 8.25388C-0.643003 11.6479 0.791997 16.6809 2.689 19.4439C3.61 20.8119 4.72 22.3169 6.183 22.2639C7.566 22.2089 8.107 21.3599 9.787 21.3599C11.467 21.3599 11.955 22.2629 13.417 22.2359C14.935 22.2089 15.884 20.8679 16.805 19.4999C17.861 17.9399 18.295 16.4359 18.321 16.3529C18.294 16.3259 15.396 15.2029 15.369 11.8389C15.341 9.02088 17.644 7.68088 17.752 7.59688C16.452 5.65688 14.42 5.43688 13.715 5.38288ZM27.35 12.4079H30.97C33.719 12.4079 35.283 10.9139 35.283 8.32588C35.283 5.73688 33.719 4.25788 30.985 4.25788H27.349V12.4079H27.35ZM31.817 1.56988C35.763 1.56988 38.511 4.31488 38.511 8.31088C38.511 12.3219 35.706 15.0809 31.718 15.0809H27.35V22.0929H24.193V1.56988H31.818H31.817ZM48.877 16.5179V15.3659L45.367 15.5929C43.395 15.7209 42.366 16.4609 42.366 17.7549C42.366 19.0069 43.437 19.8179 45.114 19.8179C47.257 19.8179 48.877 18.4379 48.877 16.5179ZM39.294 17.8409C39.294 15.2089 41.281 13.7009 44.944 13.4739L48.877 13.2319V12.0949C48.877 10.4309 47.792 9.51988 45.861 9.51988C44.268 9.51988 43.113 10.3449 42.874 11.6109H40.027C40.111 8.95088 42.591 7.01788 45.947 7.01788C49.553 7.01788 51.907 8.92288 51.907 11.8809V22.0929H48.989V19.6329H48.919C48.087 21.2399 46.255 22.2499 44.269 22.2499C41.338 22.2499 39.294 20.4859 39.294 17.8409ZM54.589 27.5829V25.1229C54.786 25.1509 55.265 25.1799 55.519 25.1799C56.914 25.1799 57.703 24.5829 58.182 23.0459L58.464 22.1359L53.124 7.20188H56.421L60.141 19.3189H60.211L63.931 7.20188H67.145L61.607 22.8899C60.338 26.4879 58.887 27.6689 55.815 27.6689C55.575 27.6689 54.8 27.6399 54.589 27.5829Z" fill="currentColor"/>
</svg><svg viewBox="0 0 169 50" fill="none" id="appstore" xmlns="http://www.w3.org/2000/svg">
<path d="M162.523 50H5.903C2.65 50 0 47.34 0 44.084V5.907C0 2.65 2.649 0 5.903 0H162.523C165.776 0 168.519 2.65 168.519 5.907V44.084C168.519 47.34 165.776 50 162.523 50Z" fill="#A6A6A6"/>
<path d="M167.31 44.085C167.31 46.73 165.17 48.873 162.524 48.873H5.904C3.258 48.873 1.111 46.73 1.111 44.085V5.90598C1.111 3.26298 3.258 1.11298 5.903 1.11298H162.523C165.171 1.11298 167.31 3.26298 167.31 5.90598V44.085Z" fill="var(--appstore-background, #000)"/>
<path d="M37.609 24.73C37.573 20.701 40.903 18.741 41.055 18.65C39.169 15.896 36.245 15.52 35.218 15.49C32.763 15.231 30.381 16.961 29.131 16.961C27.855 16.961 25.929 15.515 23.853 15.557C21.181 15.599 18.683 17.147 17.312 19.552C14.483 24.456 16.592 31.662 19.302 35.626C20.658 37.567 22.242 39.735 24.316 39.659C26.344 39.575 27.102 38.364 29.55 38.364C31.975 38.364 32.687 39.659 34.802 39.61C36.979 39.575 38.349 37.66 39.657 35.701C41.224 33.476 41.853 31.285 41.878 31.172C41.827 31.155 37.65 29.559 37.608 24.73H37.609ZM33.614 12.883C34.705 11.516 35.452 9.658 35.244 7.771C33.666 7.841 31.691 8.865 30.554 10.201C29.547 11.38 28.649 13.31 28.88 15.124C30.654 15.256 32.475 14.228 33.613 12.883H33.614Z" fill="currentColor"/>
<path d="M66.964 39.38H64.129L62.577 34.494H57.178L55.698 39.38H52.94L58.288 22.745H61.591L66.965 39.38H66.964ZM62.108 32.444L60.704 28.1C60.556 27.656 60.277 26.611 59.867 24.966H59.817C59.653 25.674 59.39 26.719 59.027 28.1L57.648 32.444H62.108ZM80.717 33.235C80.717 35.275 80.167 36.887 79.065 38.071C78.079 39.125 76.855 39.651 75.393 39.651C73.815 39.651 72.681 39.084 71.991 37.949H71.941V44.267H69.28V31.334C69.28 30.051 69.246 28.735 69.181 27.385H71.521L71.671 29.286H71.721C72.608 27.854 73.955 27.139 75.762 27.139C77.175 27.139 78.355 27.697 79.299 28.816C80.245 29.936 80.717 31.409 80.717 33.235ZM78.005 33.333C78.005 32.165 77.743 31.203 77.216 30.445C76.641 29.655 75.868 29.26 74.9 29.26C74.243 29.26 73.646 29.48 73.113 29.914C72.579 30.351 72.23 30.922 72.066 31.63C71.984 31.96 71.942 32.23 71.942 32.443V34.443C71.942 35.315 72.21 36.051 72.744 36.653C73.278 37.253 73.972 37.553 74.826 37.553C75.828 37.553 76.609 37.166 77.166 36.393C77.726 35.62 78.006 34.6 78.006 33.333H78.005ZM94.494 33.235C94.494 35.275 93.944 36.887 92.841 38.071C91.856 39.125 90.631 39.651 89.17 39.651C87.592 39.651 86.459 39.084 85.77 37.949H85.72V44.267H83.058V31.334C83.058 30.051 83.025 28.735 82.96 27.385H85.3L85.449 29.286H85.499C86.385 27.854 87.732 27.139 89.541 27.139C90.953 27.139 92.132 27.697 93.078 28.816C94.021 29.936 94.494 31.409 94.494 33.235ZM91.783 33.333C91.783 32.165 91.519 31.203 90.993 30.445C90.417 29.655 89.647 29.26 88.677 29.26C88.019 29.26 87.424 29.48 86.889 29.914C86.355 30.351 86.007 30.922 85.843 31.63C85.763 31.96 85.72 32.23 85.72 32.443V34.443C85.72 35.315 85.987 36.051 86.519 36.653C87.053 37.253 87.747 37.553 88.603 37.553C89.606 37.553 90.386 37.166 90.943 36.393C91.503 35.62 91.783 34.6 91.783 33.333ZM109.898 34.715C109.898 36.13 109.408 37.281 108.422 38.17C107.34 39.141 105.833 39.626 103.897 39.626C102.11 39.626 100.677 39.281 99.592 38.59L100.209 36.369C101.377 37.076 102.659 37.431 104.056 37.431C105.058 37.431 105.838 37.204 106.399 36.751C106.957 36.299 107.235 35.691 107.235 34.934C107.235 34.259 107.005 33.69 106.545 33.229C106.087 32.768 105.322 32.339 104.253 31.943C101.345 30.856 99.892 29.265 99.892 27.173C99.892 25.805 100.401 24.683 101.421 23.811C102.437 22.938 103.792 22.501 105.488 22.501C106.999 22.501 108.255 22.765 109.258 23.291L108.592 25.464C107.656 24.954 106.597 24.699 105.412 24.699C104.477 24.699 103.745 24.93 103.221 25.39C102.778 25.801 102.555 26.303 102.555 26.896C102.555 27.554 102.809 28.098 103.318 28.525C103.761 28.92 104.566 29.347 105.735 29.809C107.165 30.385 108.214 31.059 108.889 31.831C109.562 32.601 109.898 33.565 109.898 34.715ZM118.697 29.385H115.764V35.209C115.764 36.69 116.28 37.43 117.316 37.43C117.792 37.43 118.186 37.389 118.498 37.306L118.572 39.33C118.048 39.526 117.358 39.625 116.502 39.625C115.452 39.625 114.63 39.304 114.037 38.663C113.447 38.02 113.15 36.943 113.15 35.429V29.383H111.402V27.383H113.15V25.186L115.764 24.396V27.383H118.697V29.385ZM131.933 33.284C131.933 35.127 131.406 36.641 130.355 37.825C129.252 39.044 127.789 39.651 125.965 39.651C124.208 39.651 122.809 39.067 121.765 37.9C120.722 36.732 120.2 35.259 120.2 33.482C120.2 31.624 120.737 30.102 121.814 28.918C122.888 27.732 124.338 27.14 126.163 27.14C127.921 27.14 129.335 27.724 130.403 28.893C131.423 30.026 131.933 31.49 131.933 33.283V33.284ZM129.171 33.37C129.171 32.264 128.935 31.315 128.457 30.524C127.899 29.566 127.102 29.089 126.068 29.089C124.998 29.089 124.186 29.567 123.628 30.524C123.15 31.316 122.914 32.28 122.914 33.42C122.914 34.526 123.15 35.475 123.628 36.265C124.203 37.222 125.008 37.7 126.044 37.7C127.06 37.7 127.858 37.213 128.434 36.24C128.924 35.434 129.171 34.475 129.171 33.37ZM140.583 29.729C140.32 29.68 140.039 29.655 139.744 29.655C138.808 29.655 138.084 30.009 137.574 30.717C137.132 31.342 136.909 32.132 136.909 33.087V39.38H134.249L134.274 31.163C134.274 29.78 134.241 28.521 134.174 27.386H136.493L136.59 29.681H136.664C136.944 28.893 137.388 28.258 137.994 27.781C138.587 27.353 139.228 27.139 139.918 27.139C140.164 27.139 140.386 27.156 140.583 27.187V29.73V29.729ZM152.486 32.815C152.486 33.293 152.454 33.695 152.388 34.024H144.404C144.435 35.209 144.821 36.115 145.563 36.74C146.235 37.299 147.105 37.579 148.174 37.579C149.356 37.579 150.434 37.39 151.404 37.011L151.821 38.861C150.688 39.356 149.35 39.602 147.806 39.602C145.948 39.602 144.49 39.055 143.429 37.962C142.371 36.867 141.84 35.399 141.84 33.556C141.84 31.748 142.333 30.241 143.32 29.04C144.354 27.758 145.751 27.116 147.509 27.116C149.235 27.116 150.542 27.758 151.429 29.04C152.132 30.059 152.486 31.319 152.486 32.815ZM149.948 32.124C149.965 31.334 149.792 30.651 149.431 30.075C148.971 29.334 148.263 28.964 147.311 28.964C146.441 28.964 145.732 29.325 145.191 30.05C144.749 30.626 144.485 31.318 144.404 32.123H149.948V32.124Z" fill="currentColor"/>
<path d="M61.228 12.511C61.228 13.982 60.788 15.09 59.908 15.834C59.092 16.52 57.934 16.864 56.433 16.864C55.689 16.864 55.053 16.831 54.52 16.766V8.72697C55.215 8.61497 55.964 8.55697 56.773 8.55697C58.203 8.55697 59.28 8.86897 60.006 9.49097C60.82 10.195 61.228 11.201 61.228 12.511ZM59.848 12.548C59.848 11.594 59.597 10.862 59.092 10.352C58.588 9.84397 57.852 9.58897 56.882 9.58897C56.47 9.58897 56.119 9.61597 55.828 9.67397V15.785C55.989 15.81 56.284 15.821 56.712 15.821C57.713 15.821 58.486 15.543 59.03 14.985C59.574 14.427 59.849 13.615 59.849 12.547L59.848 12.548ZM68.542 13.796C68.542 14.702 68.283 15.445 67.767 16.027C67.225 16.627 66.507 16.925 65.611 16.925C64.747 16.925 64.059 16.639 63.546 16.064C63.034 15.49 62.778 14.766 62.778 13.894C62.778 12.981 63.042 12.232 63.571 11.651C64.101 11.07 64.812 10.779 65.708 10.779C66.572 10.779 67.266 11.065 67.792 11.639C68.291 12.196 68.542 12.916 68.542 13.796ZM67.185 13.839C67.185 13.295 67.068 12.829 66.835 12.44C66.56 11.97 66.169 11.735 65.661 11.735C65.135 11.735 64.736 11.97 64.461 12.44C64.227 12.829 64.111 13.302 64.111 13.862C64.111 14.406 64.228 14.872 64.461 15.262C64.745 15.732 65.139 15.966 65.648 15.966C66.148 15.966 66.54 15.727 66.822 15.249C67.064 14.853 67.185 14.383 67.185 13.839ZM78.348 10.899L76.508 16.791H75.308L74.546 14.232C74.353 13.594 74.196 12.959 74.073 12.329H74.049C73.936 12.976 73.779 13.61 73.576 14.233L72.766 16.791H71.554L69.823 10.9H71.167L71.832 13.701C71.993 14.363 72.126 14.995 72.232 15.592H72.255C72.353 15.1 72.514 14.472 72.741 13.714L73.576 10.9H74.642L75.442 13.652C75.636 14.324 75.793 14.97 75.914 15.592H75.95C76.039 14.986 76.173 14.34 76.35 13.652L77.064 10.9H78.348V10.899ZM85.13 16.791H83.822V13.416C83.822 12.376 83.428 11.856 82.636 11.856C82.248 11.856 81.935 11.999 81.691 12.285C81.451 12.571 81.328 12.909 81.328 13.295V16.79H80.02V12.583C80.02 12.065 80.004 11.503 79.972 10.896H81.122L81.183 11.817H81.219C81.372 11.531 81.599 11.295 81.897 11.107C82.252 10.887 82.649 10.775 83.083 10.775C83.633 10.775 84.089 10.953 84.453 11.309C84.904 11.745 85.13 12.396 85.13 13.261V16.791ZM88.738 16.791H87.431V8.19497H88.738V16.791ZM96.44 13.796C96.44 14.702 96.181 15.445 95.665 16.027C95.123 16.627 94.404 16.925 93.509 16.925C92.644 16.925 91.956 16.639 91.444 16.064C90.932 15.49 90.676 14.766 90.676 13.894C90.676 12.981 90.94 12.232 91.469 11.651C91.999 11.07 92.709 10.779 93.605 10.779C94.47 10.779 95.163 11.065 95.69 11.639C96.189 12.196 96.44 12.916 96.44 13.796ZM95.082 13.839C95.082 13.295 94.964 12.829 94.731 12.44C94.457 11.97 94.066 11.735 93.559 11.735C93.032 11.735 92.632 11.97 92.359 12.44C92.124 12.829 92.009 13.302 92.009 13.862C92.009 14.406 92.126 14.872 92.359 15.262C92.642 15.732 93.037 15.966 93.546 15.966C94.046 15.966 94.436 15.727 94.718 15.249C94.962 14.853 95.082 14.383 95.082 13.839ZM102.771 16.791H101.596L101.499 16.113H101.463C101.061 16.653 100.488 16.925 99.744 16.925C99.188 16.925 98.739 16.746 98.401 16.391C98.094 16.069 97.941 15.668 97.941 15.191C97.941 14.471 98.24 13.923 98.843 13.543C99.444 13.163 100.291 12.976 101.38 12.985V12.875C101.38 12.099 100.974 11.711 100.158 11.711C99.578 11.711 99.066 11.857 98.624 12.147L98.358 11.287C98.905 10.949 99.58 10.779 100.377 10.779C101.915 10.779 102.687 11.591 102.687 13.216V15.386C102.687 15.975 102.715 16.444 102.771 16.791ZM101.413 14.766V13.857C99.97 13.832 99.248 14.229 99.248 15.045C99.248 15.353 99.331 15.582 99.499 15.736C99.668 15.89 99.883 15.966 100.139 15.966C100.426 15.966 100.694 15.875 100.939 15.694C101.184 15.511 101.336 15.28 101.392 14.996C101.405 14.932 101.412 14.855 101.412 14.766H101.413ZM110.205 16.791H109.044L108.983 15.845H108.946C108.576 16.565 107.944 16.925 107.056 16.925C106.347 16.925 105.757 16.646 105.289 16.089C104.821 15.531 104.587 14.807 104.587 13.919C104.587 12.965 104.841 12.193 105.35 11.603C105.843 11.053 106.447 10.778 107.166 10.778C107.956 10.778 108.509 11.044 108.824 11.578H108.849V8.19397H110.159V15.203C110.159 15.777 110.173 16.305 110.205 16.79V16.791ZM108.849 14.306V13.324C108.849 13.154 108.836 13.016 108.813 12.911C108.739 12.596 108.581 12.331 108.34 12.118C108.096 11.904 107.803 11.796 107.465 11.796C106.977 11.796 106.595 11.99 106.314 12.379C106.035 12.768 105.894 13.264 105.894 13.87C105.894 14.452 106.028 14.925 106.296 15.289C106.58 15.676 106.962 15.87 107.44 15.87C107.87 15.87 108.212 15.709 108.473 15.385C108.725 15.086 108.849 14.726 108.849 14.306ZM121.393 13.796C121.393 14.702 121.135 15.445 120.618 16.027C120.076 16.627 119.36 16.925 118.462 16.925C117.599 16.925 116.912 16.639 116.397 16.064C115.886 15.49 115.63 14.766 115.63 13.894C115.63 12.981 115.893 12.232 116.422 11.651C116.952 11.07 117.663 10.779 118.561 10.779C119.423 10.779 120.118 11.065 120.643 11.639C121.143 12.196 121.393 12.916 121.393 13.796ZM120.037 13.839C120.037 13.295 119.92 12.829 119.687 12.44C119.411 11.97 119.021 11.735 118.512 11.735C117.988 11.735 117.588 11.97 117.312 12.44C117.078 12.829 116.962 13.302 116.962 13.862C116.962 14.406 117.079 14.872 117.312 15.262C117.596 15.732 117.99 15.966 118.499 15.966C118.999 15.966 119.392 15.727 119.674 15.249C119.915 14.853 120.037 14.383 120.037 13.839ZM128.427 16.791H127.12V13.416C127.12 12.376 126.726 11.856 125.933 11.856C125.545 11.856 125.231 11.999 124.989 12.285C124.747 12.571 124.626 12.909 124.626 13.295V16.79H123.316V12.583C123.316 12.065 123.302 11.503 123.27 10.896H124.419L124.48 11.817H124.516C124.67 11.531 124.896 11.295 125.194 11.107C125.55 10.887 125.945 10.775 126.381 10.775C126.929 10.775 127.386 10.953 127.749 11.309C128.202 11.745 128.427 12.396 128.427 13.261V16.791ZM137.231 11.88H135.791V14.742C135.791 15.47 136.047 15.834 136.553 15.834C136.788 15.834 136.983 15.814 137.136 15.773L137.17 16.766C136.912 16.864 136.572 16.912 136.154 16.912C135.637 16.912 135.235 16.755 134.944 16.44C134.652 16.125 134.507 15.595 134.507 14.851V11.88H133.647V10.899H134.507V9.81897L135.789 9.43097V10.897H137.23V11.88H137.231ZM144.156 16.791H142.847V13.441C142.847 12.385 142.453 11.856 141.663 11.856C141.056 11.856 140.642 12.162 140.414 12.775C140.376 12.904 140.354 13.061 140.354 13.246V16.79H139.046V8.19497H140.353V11.746H140.378C140.79 11.1 141.381 10.777 142.146 10.777C142.687 10.777 143.136 10.955 143.491 11.311C143.935 11.755 144.157 12.415 144.157 13.287V16.791H144.156ZM151.301 13.566C151.301 13.801 151.283 13.999 151.252 14.16H147.329C147.346 14.742 147.533 15.186 147.897 15.494C148.229 15.769 148.657 15.906 149.181 15.906C149.761 15.906 150.291 15.814 150.768 15.627L150.972 16.537C150.414 16.78 149.758 16.901 148.998 16.901C148.086 16.901 147.368 16.633 146.849 16.095C146.327 15.557 146.069 14.836 146.069 13.931C146.069 13.043 146.31 12.303 146.796 11.713C147.302 11.083 147.988 10.767 148.853 10.767C149.699 10.767 150.342 11.083 150.776 11.713C151.127 12.213 151.301 12.831 151.301 13.566ZM150.052 13.228C150.062 12.838 149.976 12.504 149.799 12.221C149.572 11.857 149.226 11.675 148.758 11.675C148.331 11.675 147.983 11.853 147.717 12.209C147.5 12.493 147.371 12.831 147.329 13.228H150.052Z" fill="currentColor"/>
</svg><svg viewBox="0 0 79 37" fill="none" id="googlepay-ico" xmlns="http://www.w3.org/2000/svg">
<g>
<path d="M37.787 14.333V22.593H35.197V2.20201H42.069C43.726 2.17101 45.336 2.80601 46.51 3.97701C48.86 6.18801 49.004 9.91101 46.8 12.301L46.51 12.594C45.303 13.748 43.822 14.334 42.068 14.334H37.787V14.333ZM37.787 4.70701V11.829H42.133C43.099 11.861 44.033 11.471 44.692 10.772C46.044 9.35701 46.012 7.08201 44.612 5.71501C43.952 5.06501 43.066 4.70701 42.132 4.70701H37.788H37.787ZM54.349 8.18701C56.264 8.18701 57.777 8.70701 58.887 9.73101C59.998 10.756 60.545 12.186 60.545 13.991V22.592H58.067V20.657H57.954C56.876 22.251 55.459 23.047 53.673 23.047C52.16 23.047 50.873 22.592 49.858 21.682C48.86 20.836 48.298 19.584 48.329 18.267C48.329 16.82 48.877 15.682 49.955 14.82C51.033 13.959 52.482 13.536 54.285 13.536C55.829 13.536 57.085 13.829 58.083 14.381V13.78C58.083 12.886 57.696 12.04 57.02 11.455C56.328 10.837 55.443 10.495 54.526 10.495C53.077 10.495 51.935 11.113 51.098 12.349L48.812 10.902C50.035 9.09701 51.886 8.18701 54.349 8.18701ZM51 18.316C51 18.999 51.322 19.633 51.853 20.023C52.433 20.478 53.141 20.723 53.865 20.706C54.959 20.706 56.005 20.267 56.778 19.486C57.631 18.674 58.066 17.714 58.066 16.609C57.261 15.959 56.134 15.633 54.686 15.649C53.64 15.649 52.754 15.909 52.046 16.414C51.354 16.918 51 17.552 51 18.316ZM74.773 8.64201L66.114 28.722H63.442L66.661 21.698L60.98 8.64201H63.796L67.9 18.657H67.949L71.956 8.64201H74.773Z" fill="currentColor"/>
<path d="M27.31 12.5442C27.31 11.7472 27.246 10.9512 27.117 10.1702H16.19V14.6742H22.451C22.193 16.1212 21.357 17.4222 20.133 18.2342V21.1612H23.867C26.057 19.1292 27.312 16.1212 27.312 12.5442H27.31Z" fill="#4285F4"/>
<path d="M16.19 23.9901C19.311 23.9901 21.951 22.9501 23.866 21.1611L20.132 18.2351C19.086 18.9501 17.75 19.3561 16.189 19.3561C13.163 19.3561 10.604 17.2921 9.687 14.5281H5.84V17.5521C7.804 21.5021 11.811 23.9901 16.19 23.9901Z" fill="#34A853"/>
<path d="M9.687 14.5282C9.204 13.0812 9.204 11.5032 9.687 10.0402V7.03223H5.84C4.182 10.3322 4.182 14.2352 5.84 17.5352L9.687 14.5282Z" fill="#FBBC04"/>
<path d="M16.19 5.21112C17.847 5.17912 19.44 5.81312 20.631 6.96712L23.947 3.61812C21.838 1.63412 19.07 0.545121 16.189 0.578121C11.811 0.578121 7.804 3.08112 5.84 7.03212L9.687 10.0561C10.604 7.27612 13.163 5.21112 16.189 5.21112H16.19Z" fill="#EA4335"/>
</g>
</svg><svg viewBox="0 0 170 50" fill="none" id="googleplay" xmlns="http://www.w3.org/2000/svg">
<path d="M163.053 50H6.273C2.817 50 0 47.182 0 43.75V6.25C0 2.805 2.816 0 6.274 0H163.054C166.508 0 169.327 2.805 169.327 6.25V43.75C169.327 47.182 166.508 50 163.053 50Z" fill="black"/>
<path fill-rule="evenodd" clip-rule="evenodd" d="M163.053 1C165.953 1 168.327 3.36 168.327 6.25V43.75C168.327 46.64 165.969 49 163.053 49H6.273C3.374 49 1 46.64 1 43.75V6.25C1 3.36 3.358 1 6.274 1H163.054H163.053ZM163.053 0H6.273C2.817 0 0 2.818 0 6.25V43.75C0 47.195 2.816 50 6.274 50H163.054C166.508 50 169.327 47.195 169.327 43.75V6.25C169.327 2.818 166.508 0 163.053 0Z" fill="#A6A6A6"/>
<path d="M89.202 16.54C88.072 16.54 87.118 16.144 86.364 15.365C85.617 14.607 85.199 13.563 85.218 12.497C85.218 11.359 85.604 10.396 86.364 9.63203C87.115 8.85203 88.068 8.45703 89.199 8.45703C90.317 8.45703 91.271 8.85303 92.037 9.63203C92.797 10.421 93.183 11.384 93.183 12.497C93.171 13.637 92.784 14.601 92.037 15.362C91.287 16.147 90.333 16.54 89.202 16.54ZM55.557 16.54C54.451 16.54 53.491 16.15 52.707 15.38C51.927 14.613 51.532 13.644 51.532 12.5C51.532 11.356 51.928 10.387 52.706 9.62003C53.476 8.85003 54.436 8.46003 55.556 8.46003C56.105 8.46003 56.638 8.57003 57.148 8.79003C57.65 9.00603 58.058 9.29903 58.36 9.65703L58.435 9.74703L57.591 10.577L57.504 10.474C57.027 9.90603 56.388 9.62903 55.544 9.62903C54.79 9.62903 54.134 9.89703 53.591 10.427C53.046 10.96 52.769 11.658 52.769 12.503C52.769 13.348 53.046 14.046 53.591 14.579C54.133 15.109 54.791 15.377 55.544 15.377C56.348 15.377 57.024 15.109 57.55 14.579C57.862 14.267 58.055 13.831 58.123 13.279H55.416V12.113H59.286L59.301 12.219C59.329 12.416 59.357 12.619 59.357 12.805C59.357 13.881 59.033 14.751 58.391 15.393C57.662 16.153 56.709 16.54 55.557 16.54ZM100.292 16.375H99.099L95.445 10.524L95.475 11.577V16.372H94.283V8.62503H95.644L95.681 8.68503L99.117 14.195L99.087 13.145V8.62503H100.292V16.375ZM80.237 16.375H79.028V9.79003H76.932V8.62503H82.33V9.79103H80.234V16.375H80.237ZM75.947 16.375H74.742V8.62503H75.948V16.375H75.947ZM69.172 16.375H67.967V9.79003H65.871V8.62503H71.269V9.79103H69.172V16.375ZM65.107 16.362H60.485V8.62503H65.107V9.79103H61.693V11.917H64.774V13.07H61.694V15.196H65.107V16.362ZM87.249 14.564C87.788 15.103 88.442 15.374 89.202 15.374C89.984 15.374 90.622 15.109 91.155 14.564C91.685 14.034 91.953 13.339 91.953 12.5C91.953 11.661 91.685 10.963 91.158 10.436C90.619 9.89703 89.962 9.62603 89.205 9.62603C88.423 9.62603 87.785 9.89103 87.255 10.436C86.725 10.966 86.458 11.661 86.458 12.5C86.458 13.339 86.723 14.037 87.249 14.564Z" fill="white"/>
<path fill-rule="evenodd" clip-rule="evenodd" d="M85.106 27.195C82.162 27.195 79.776 29.43 79.776 32.512C79.776 35.567 82.178 37.83 85.106 37.83C88.05 37.83 90.436 35.58 90.436 32.512C90.436 29.43 88.05 27.195 85.106 27.195ZM85.106 35.723C83.496 35.723 82.109 34.389 82.109 32.5C82.109 30.583 83.4991 29.277 85.106 29.277C86.716 29.277 88.103 30.583 88.103 32.5C88.106 34.401 86.716 35.723 85.106 35.723ZM73.477 27.195C70.534 27.195 68.147 29.43 68.147 32.512C68.147 35.567 70.549 37.83 73.477 37.83C76.421 37.83 78.807 35.58 78.807 32.512C78.807 29.43 76.418 27.195 73.477 27.195ZM73.477 35.723C71.867 35.723 70.481 34.389 70.481 32.5C70.481 30.583 71.871 29.277 73.477 29.277C75.087 29.277 76.474 30.583 76.474 32.5C76.474 34.401 75.088 35.723 73.477 35.723ZM59.64 28.82V31.07H65.039C64.874 32.333 64.456 33.265 63.818 33.904C63.027 34.696 61.805 35.556 59.653 35.556C56.335 35.556 53.741 32.876 53.741 29.556C53.741 26.236 56.335 23.555 59.653 23.555C61.444 23.555 62.749 24.262 63.718 25.166L65.313 23.57C63.967 22.28 62.176 21.292 59.665 21.292C55.115 21.292 51.295 25.001 51.295 29.542C51.295 34.097 55.111 37.794 59.665 37.794C62.123 37.794 63.967 36.99 65.425 35.474C66.911 33.988 67.381 31.89 67.381 30.197C67.381 29.671 67.341 29.197 67.257 28.795H59.637C59.64 28.792 59.64 28.82 59.64 28.82ZM116.238 30.571C115.792 29.378 114.446 27.183 111.686 27.183C108.951 27.183 106.678 29.337 106.678 32.501C106.678 35.487 108.927 37.819 111.951 37.819C114.381 37.819 115.795 36.332 116.378 35.459L114.574 34.249C113.976 35.139 113.144 35.721 111.964 35.721C110.771 35.721 109.936 35.179 109.381 34.109L116.487 31.164C116.487 31.167 116.237 30.571 116.237 30.571H116.238ZM108.992 32.348C108.936 30.294 110.587 29.25 111.767 29.25C112.699 29.25 113.475 29.708 113.739 30.375L108.992 32.348ZM103.22 37.5H105.553V21.877H103.22V37.5ZM99.388 28.376H99.304C98.778 27.749 97.778 27.182 96.501 27.182C93.85 27.182 91.408 29.517 91.408 32.516C91.408 35.502 93.838 37.809 96.501 37.809C97.762 37.809 98.778 37.239 99.304 36.599H99.388V37.363C99.388 39.393 98.304 40.486 96.557 40.486C95.127 40.486 94.239 39.458 93.877 38.597L91.85 39.445C92.432 40.848 93.987 42.585 96.554 42.585C99.289 42.585 101.606 40.973 101.606 37.042V27.5H99.401V28.376H99.388ZM96.709 35.723C95.099 35.723 93.753 34.377 93.753 32.516C93.753 30.639 95.099 29.28 96.709 29.28C98.304 29.28 99.541 30.655 99.541 32.516C99.557 34.376 98.307 35.723 96.709 35.723ZM127.162 21.877H121.583V37.5H123.916V31.584H127.166C129.747 31.584 132.286 29.71 132.286 26.736C132.286 23.762 129.756 21.876 127.162 21.876V21.877ZM127.231 29.401H123.913V24.04H127.231C128.978 24.04 129.966 25.483 129.966 26.72C129.966 27.946 128.966 29.401 127.231 29.401ZM141.638 27.166C139.943 27.166 138.195 27.918 137.473 29.554L139.541 30.414C139.987 29.554 140.803 29.261 141.666 29.261C142.874 29.261 144.096 29.984 144.123 31.275V31.44C143.706 31.203 142.79 30.842 141.693 30.842C139.46 30.842 137.196 32.064 137.196 34.355C137.196 36.453 139.027 37.799 141.068 37.799C142.634 37.799 143.498 37.092 144.036 36.272H144.12V37.482H146.37V31.496C146.37 28.709 144.3 27.166 141.638 27.166ZM141.345 35.723C140.582 35.723 139.513 35.349 139.513 34.389C139.513 33.179 140.846 32.721 141.983 32.721C143.011 32.721 143.497 32.943 144.108 33.248C143.94 34.651 142.756 35.711 141.345 35.723ZM154.575 27.5L151.895 34.277H151.811L149.036 27.5H146.525L150.69 36.973L148.316 42.238H150.746L157.154 27.5H154.574H154.575ZM133.573 37.5H135.906V21.877H133.573V37.5Z" fill="white"/>
<path fill-rule="evenodd" clip-rule="evenodd" d="M13.033 9.41703C12.672 9.80703 12.463 10.402 12.463 11.181V38.821C12.463 39.601 12.672 40.196 13.046 40.571L13.142 40.655L28.618 25.168V24.822L13.13 9.33203L13.033 9.41703Z" fill="url(#dpaint0_linear)"/>
<path fill-rule="evenodd" clip-rule="evenodd" d="M33.767 30.3458L28.605 25.1808V24.8188L33.767 19.6538L33.879 19.7228L39.985 23.1948C41.732 24.1798 41.732 25.8068 39.985 26.8048L33.879 30.2768L33.767 30.3458Z" fill="url(#dpaint1_linear)"/>
<path fill-rule="evenodd" clip-rule="evenodd" d="M33.88 30.277L28.604 25L13.033 40.583C13.603 41.193 14.56 41.263 15.628 40.667L33.879 30.277" fill="url(#dpaint2_linear)"/>
<path fill-rule="evenodd" clip-rule="evenodd" d="M33.88 19.7231L15.627 9.34907C14.559 8.73807 13.599 8.82207 13.032 9.43307L28.605 25.0001L33.879 19.7231H33.88Z" fill="url(#dpaint3_linear)"/>
<path opacity="0.2" d="M33.767 30.165L15.641 40.471C14.628 41.054 13.725 41.013 13.142 40.483L13.046 40.58L13.142 40.664C13.725 41.191 14.628 41.234 15.641 40.651L33.891 30.277L33.767 30.165Z" fill="black"/>
<path opacity="0.12" d="M39.985 26.624L33.751 30.165L33.864 30.277L39.969 26.805C40.844 26.306 41.274 25.651 41.274 25C41.221 25.599 40.776 26.166 39.984 26.624H39.985Z" fill="black"/>
<path opacity="0.25" fill-rule="evenodd" clip-rule="evenodd" d="M15.628 9.52987L39.985 23.3759C40.775 23.8219 41.221 24.4049 41.29 24.9999C41.29 24.3489 40.86 23.6939 39.985 23.1949L15.628 9.34987C13.881 8.34887 12.463 9.18387 12.463 11.1819V11.3629C12.463 9.36187 13.881 8.54287 15.628 9.52987Z" fill="white"/>
<defs>
<linearGradient id="dpaint0_linear" x1="22.32" y1="10.8825" x2="9.04406" y2="24.1674" gradientUnits="userSpaceOnUse">
<stop stop-color="#00A0FF"/>
<stop offset="0.00657" stop-color="#00A1FF"/>
<stop offset="0.2601" stop-color="#00BEFF"/>
<stop offset="0.5122" stop-color="#00D2FF"/>
<stop offset="0.7604" stop-color="#00DFFF"/>
<stop offset="1" stop-color="#00E3FF"/>
</linearGradient>
<linearGradient id="dpaint1_linear" x1="42.2635" y1="24.9998" x2="12.0376" y2="24.9998" gradientUnits="userSpaceOnUse">
<stop stop-color="#FFE000"/>
<stop offset="0.4087" stop-color="#FFBD00"/>
<stop offset="0.7754" stop-color="#FFA500"/>
<stop offset="1" stop-color="#FF9C00"/>
</linearGradient>
<linearGradient id="dpaint2_linear" x1="31.012" y1="29.9649" x2="8.34542" y2="52.6485" gradientUnits="userSpaceOnUse">
<stop stop-color="#FF3A44"/>
<stop offset="1" stop-color="#C31162"/>
</linearGradient>
<linearGradient id="dpaint3_linear" x1="9.11026" y1="7.01664" x2="19.2272" y2="17.142" gradientUnits="userSpaceOnUse">
<stop stop-color="#32A071"/>
<stop offset="0.0685" stop-color="#2DA771"/>
<stop offset="0.4762" stop-color="#15CF74"/>
<stop offset="0.8009" stop-color="#06E775"/>
<stop offset="1" stop-color="#00F076"/>
</linearGradient>
</defs>
</svg><svg viewBox="0 0 39 40" fill="none" id="logo" xmlns="http://www.w3.org/2000/svg">
<path fill-rule="evenodd" clip-rule="evenodd" d="M36.8621 11.9932C35.3169 9.61719 32.2355 8.76898 29.6878 10.0176C26.9661 11.396 25.8792 14.7147 27.2604 17.4304C28.0472 18.9774 29.5177 20.0648 31.2298 20.3657C31.022 26.9115 25.5355 32.0498 18.9753 31.8425C12.6034 31.641 7.52584 26.4587 7.46798 20.0978C7.4565 15.1971 10.5112 10.8101 15.1182 9.11081C16.0036 8.79125 16.5139 7.86584 16.3106 6.94865L16.2972 6.89006C16.071 5.88681 16.7028 4.89027 17.7083 4.66454C17.7904 4.64638 17.8739 4.63341 17.9577 4.62627C18.4201 4.58389 18.885 4.56292 19.3524 4.56249C19.9305 4.56249 20.5082 4.59406 21.0831 4.65698C22.1219 4.77049 23.0559 4.02195 23.1694 2.98562C23.1731 2.95146 23.1759 2.9173 23.1779 2.88314C23.2058 1.85525 22.4249 0.984326 21.398 0.898056C20.7184 0.826705 20.0356 0.791029 19.3524 0.791029C8.66435 0.791029 4.57764e-05 9.43643 4.57764e-05 20.1011C4.57764e-05 30.7655 8.66457 39.4107 19.3526 39.4107C30.0406 39.4107 38.7049 30.7653 38.7049 20.1011C38.7049 18.2131 38.3246 14.143 36.8621 11.9932Z" fill="#222222"/>
</svg><svg viewBox="0 0 57 36" fill="none" id="mastercard-logo" xmlns="http://www.w3.org/2000/svg">
<path fill-rule="evenodd" clip-rule="evenodd" d="M21.062 31.9722H36.3654V4.63315H21.062V31.9722Z" fill="#EA5C0F"/>
<path fill-rule="evenodd" clip-rule="evenodd" d="M22.0334 18.303C22.0334 12.7567 24.645 7.81764 28.7133 4.63399C25.7384 2.30582 21.9842 0.916668 17.9045 0.916668C8.24584 0.916668 0.416061 8.70078 0.416061 18.303C0.416061 27.9055 8.24584 35.6901 17.9045 35.6901C21.9842 35.6901 25.7384 34.301 28.7133 31.9722C24.645 28.7883 22.0334 23.8493 22.0334 18.303Z" fill="#DD0C17"/>
<path fill-rule="evenodd" clip-rule="evenodd" d="M57.0109 18.303C57.0109 27.9055 49.1811 35.6901 39.5219 35.6901C35.4419 35.6901 31.6888 34.301 28.7137 31.9722C32.7811 28.7883 35.3939 23.8493 35.3939 18.303C35.3939 12.7567 32.7811 7.81764 28.7137 4.63399C31.6888 2.30582 35.4419 0.916668 39.5219 0.916668C49.1811 0.916668 57.0109 8.70078 57.0109 18.303Z" fill="#F79E1B"/>
<path fill-rule="evenodd" clip-rule="evenodd" d="M56.4647 29.2353V28.402H56.2876L56.0837 28.9751L55.8796 28.402H55.7025V29.2353H55.8275V28.6066L56.0185 29.1486H56.1484L56.3397 28.6056V29.2353H56.4647ZM55.3425 29.2353V28.544H55.5693V28.4037H54.9912V28.544H55.218V29.2353H55.3425Z" fill="#F69F00"/>
</svg></svg>