<svg width="79" height="37" viewBox="0 0 79 37" fill="none" xmlns="http://www.w3.org/2000/svg">
<g>
<path d="M37.787 14.333V22.593H35.197V2.20201H42.069C43.726 2.17101 45.336 2.80601 46.51 3.97701C48.86 6.18801 49.004 9.91101 46.8 12.301L46.51 12.594C45.303 13.748 43.822 14.334 42.068 14.334H37.787V14.333ZM37.787 4.70701V11.829H42.133C43.099 11.861 44.033 11.471 44.692 10.772C46.044 9.35701 46.012 7.08201 44.612 5.71501C43.952 5.06501 43.066 4.70701 42.132 4.70701H37.788H37.787ZM54.349 8.18701C56.264 8.18701 57.777 8.70701 58.887 9.73101C59.998 10.756 60.545 12.186 60.545 13.991V22.592H58.067V20.657H57.954C56.876 22.251 55.459 23.047 53.673 23.047C52.16 23.047 50.873 22.592 49.858 21.682C48.86 20.836 48.298 19.584 48.329 18.267C48.329 16.82 48.877 15.682 49.955 14.82C51.033 13.959 52.482 13.536 54.285 13.536C55.829 13.536 57.085 13.829 58.083 14.381V13.78C58.083 12.886 57.696 12.04 57.02 11.455C56.328 10.837 55.443 10.495 54.526 10.495C53.077 10.495 51.935 11.113 51.098 12.349L48.812 10.902C50.035 9.09701 51.886 8.18701 54.349 8.18701ZM51 18.316C51 18.999 51.322 19.633 51.853 20.023C52.433 20.478 53.141 20.723 53.865 20.706C54.959 20.706 56.005 20.267 56.778 19.486C57.631 18.674 58.066 17.714 58.066 16.609C57.261 15.959 56.134 15.633 54.686 15.649C53.64 15.649 52.754 15.909 52.046 16.414C51.354 16.918 51 17.552 51 18.316ZM74.773 8.64201L66.114 28.722H63.442L66.661 21.698L60.98 8.64201H63.796L67.9 18.657H67.949L71.956 8.64201H74.773Z" fill="currentColor"/>
<path d="M27.31 12.5442C27.31 11.7472 27.246 10.9512 27.117 10.1702H16.19V14.6742H22.451C22.193 16.1212 21.357 17.4222 20.133 18.2342V21.1612H23.867C26.057 19.1292 27.312 16.1212 27.312 12.5442H27.31Z" fill="#4285F4"/>
<path d="M16.19 23.9901C19.311 23.9901 21.951 22.9501 23.866 21.1611L20.132 18.2351C19.086 18.9501 17.75 19.3561 16.189 19.3561C13.163 19.3561 10.604 17.2921 9.687 14.5281H5.84V17.5521C7.804 21.5021 11.811 23.9901 16.19 23.9901Z" fill="#34A853"/>
<path d="M9.687 14.5282C9.204 13.0812 9.204 11.5032 9.687 10.0402V7.03223H5.84C4.182 10.3322 4.182 14.2352 5.84 17.5352L9.687 14.5282Z" fill="#FBBC04"/>
<path d="M16.19 5.21112C17.847 5.17912 19.44 5.81312 20.631 6.96712L23.947 3.61812C21.838 1.63412 19.07 0.545121 16.189 0.578121C11.811 0.578121 7.804 3.08112 5.84 7.03212L9.687 10.0561C10.604 7.27612 13.163 5.21112 16.189 5.21112H16.19Z" fill="#EA4335"/>
</g>
</svg>
